<?xml version="1.0" encoding="UTF-8"?>
<svg id="Capa_1" data-name="Capa 1" xmlns="http://www.w3.org/2000/svg" viewBox="0 0 443 444">
  <defs>
    <style>
      .cls-1 {
        fill: #fff;
      }

      .cls-2 {
        fill: #7d4cc2;
      }
    </style>
  </defs>
  <rect class="cls-2" x="0" y="0" width="443" height="444" rx="221.5" ry="221.5"/>
  <path class="cls-1" d="M230.66,40.67l29.4,31.99c.19,.2,.41,.26,.67,.18l55.04-17.63c.2-.07,.43,.04,.5,.25,0,.02,.01,.03,.01,.05l12.47,56.45c.05,.25,.21,.41,.46,.47l56.78,12.2c.23,.05,.37,.27,.32,.5,0,.01,0,.03-.01,.04l-17.31,54.53c-.19,.61-.01,1.27,.46,1.7l42.26,38.13c.33,.3,.35,.81,.05,1.14-.02,.02-.03,.03-.05,.05l-41.72,38.03c-.65,.59-.9,1.52-.63,2.36,5.6,17.55,11.31,35.32,17.12,53.29,.34,1.03,.07,1.52-.81,1.47l-55.6,12.32c-.44,.1-.7,.37-.79,.82l-3.85,19.82-7.99,35.41c-.23,1.01-.84,1.37-1.83,1.06l-45.88-14.27-7.53-2.72c-.69-.25-1.46-.05-1.93,.51l-4.67,5.52-33.82,37.41-18.68-20.5-20.71-22.6c-.21-.23-.52-.31-.82-.22l-7,2.16-47.76,15.34c-.61,.16-.96,.04-1.05-.35-4.24-19.09-8.36-37.77-12.37-56.04-.1-.47-.47-.83-.94-.93l-56.46-12.09c-.16-.04-.27-.19-.23-.35,0-.01,0-.02,0-.03l17.35-54.78c.18-.56,.01-1.17-.43-1.57l-42.53-38.45c-.2-.18-.2-.36,0-.55l42.56-38.89c.29-.26,.39-.66,.27-1.03l-17.59-54.69c-.09-.29,.07-.59,.35-.68,.02,0,.03,0,.05-.01l56.13-12.43c.42-.09,.74-.41,.83-.83l12.03-55.7c.14-.65,.53-.87,1.16-.67l54.16,17.07c.59,.19,1.23,.02,1.64-.44l28.07-30.95,10.39-11.35c.23-.25,.62-.27,.86-.05,.02,.01,.03,.03,.04,.05l9.51,10.47Zm122.5,171.53c-4.72-72.92-67.71-128.21-140.71-123.49h0c-72.99,4.72-128.34,67.66-123.63,140.58,4.72,72.92,67.71,128.21,140.71,123.49h0c72.99-4.72,128.34-67.66,123.63-140.58Z"/>
  <path class="cls-2" d="M353.17,212.2c4.72,72.92-50.63,135.86-123.63,140.58-72.99,4.72-135.99-50.57-140.71-123.49h0c-4.72-72.92,50.63-135.86,123.63-140.58,72.99-4.72,135.99,50.57,140.71,123.49h0Zm-13.98,9.4c0-65.23-52.88-118.1-118.1-118.1h0c-65.23,0-118.1,52.88-118.1,118.1h0c0,65.23,52.88,118.1,118.1,118.1h0c65.23,0,118.1-52.88,118.1-118.1h0Z"/>
  <circle class="cls-1" cx="221.08" cy="221.6" r="118.1"/>
  <path class="cls-2" d="M279.31,255.42c2.06,8.33,3.07,16.34,3.02,24.04-.05,8.66-1.69,18.41-7.35,24.84-6.06,6.9-15.41,6.61-23.44,3.87-10.84-3.69-21-11.37-29.4-19.56-.12-.11-.23-.11-.35,0-6.47,6.18-13.67,11.75-21.39,15.8-6.91,3.62-15.14,6.5-22.66,5.16-13.34-2.37-16.69-17.48-16.71-29.18-.01-8.09,1.26-16.44,3.26-24.57,.04-.17-.02-.28-.19-.33-10.03-2.72-20.73-7.52-28.89-13.76-6.05-4.63-11.74-11.08-12.31-18.61-.89-11.7,11.06-20.83,20.41-25.75,6.66-3.5,13.57-5.98,20.9-8.2,.17-.05,.23-.16,.19-.33-2.77-10.86-4.28-22.83-2.67-33.66,.79-5.28,2.59-10.84,6.04-14.86,6.68-7.8,17.34-6.65,26.23-3.1,10.22,4.08,19.55,11.08,27.55,18.76,.09,.09,.24,.09,.33,0,6.49-6.32,13.21-11.47,20.17-15.46,7.04-4.03,16.49-7.7,24.64-5.64,14.53,3.67,16.01,23.86,15.15,35.76-.44,6.09-1.43,12.23-2.95,18.42-.02,.1,.03,.2,.13,.23,11.04,3.15,22.18,7.85,30.91,14.93,3.22,2.61,5.76,5.45,7.6,8.52,8.3,13.79-3.9,25.69-14.68,32.23-7.07,4.29-15.01,7.54-23.32,10.06-.19,.06-.26,.19-.21,.38Zm-34.85-72.47c8.78,.87,17.37,2.15,26.09,4.13,.1,.02,.16-.01,.19-.11,1.59-6.46,2.53-12.79,2.81-19,.3-6.77-.29-14.39-3.45-20.27-1.95-3.62-5.04-5.27-9.28-4.93-6.4,.51-12.72,3.64-18.21,7.24-5.32,3.5-10.27,7.49-14.82,11.98-.11,.1-.11,.21,0,.33,5.71,6.22,11.16,13.03,16.35,20.43,.08,.11,.19,.18,.33,.19Zm-74.64-24.61c-.96,9.36,.44,19.18,2.75,28.43,.04,.17,.15,.24,.32,.2,8.13-1.85,16.77-3.19,25.93-4.03,.13-.01,.25-.08,.32-.19,5.16-7.3,10.67-14.13,16.53-20.49,.09-.09,.08-.18,0-.27-6.76-6.49-14.71-12.54-23.3-16.34-4.05-1.8-9.06-3.24-13.44-2.52-6.59,1.08-8.53,9.76-9.09,15.21Zm40.38,23.82c7.74-.4,15.51-.34,22.93,0,.05,0,.08-.03,.09-.08,0-.02,0-.04-.02-.06-3.47-4.64-7.25-9.21-11.34-13.72-.07-.08-.2-.09-.29-.01,0,0,0,0-.01,.01-3.97,4.32-7.78,8.88-11.43,13.69-.03,.04-.02,.11,.02,.14,.02,.01,.04,.02,.06,.02Zm27.29,8.66c-11.98-.72-22.94-.68-32.89,.11-.47,.04-.89-.04-1.19,.41-6.66,9.81-12.53,19.98-17.62,30.5-.09,.19-.09,.41,0,.6,5.15,10.67,11.09,20.92,17.81,30.75,.08,.11,.18,.17,.32,.19,11.76,.77,23.62,.76,35.57-.05,.14-.01,.26-.08,.34-.2,6.65-10,12.56-20.3,17.76-30.89,.05-.11,.05-.24,0-.34-5.26-10.57-11.18-20.78-17.76-30.61-.08-.12-.18-.19-.31-.22-.45-.11-1.12-.19-2.01-.25Zm-44.9,1.28c-5.91,.78-11.68,1.73-17.47,3-.16,.04-.21,.13-.16,.29,1.81,5.7,3.84,11.24,6.11,16.63,.07,.18,.16,.18,.24,0,3.43-6.65,7.23-13.23,11.4-19.74,.04-.05,.02-.13-.04-.17-.02-.02-.05-.02-.08-.02Zm75.71,3.09c-5.94-1.33-11.83-2.3-17.76-3.1-.11-.01-.14,.03-.08,.12,4.14,6.51,7.97,13.11,11.49,19.82,.1,.19,.19,.18,.27,0,2.28-5.33,4.35-10.88,6.18-16.64,.03-.1,0-.16-.11-.19Zm-136.72,28.78c1.36,4.97,6.05,9.27,10.3,12.25,7.16,5.03,15.93,8.75,24.47,11.16,.16,.05,.26,0,.31-.17,2.73-8.66,5.92-16.92,9.57-24.78,.07-.16,.08-.32,0-.47-3.63-8-6.82-16.06-9.49-24.59-.02-.07-.1-.11-.17-.09-5.97,1.64-11.66,3.77-17.07,6.4-4.49,2.18-8.38,4.7-11.68,7.55-3.4,2.93-7.58,7.85-6.24,12.74Zm136.39-4.16c-.29,.64-.58,1.3-.87,1.99-.07,.17-.07,.36,0,.52,3.8,7.89,7.07,16.07,9.82,24.54,.03,.09,.12,.14,.21,.11,9.63-2.83,19.6-7.1,27.31-13.44,4-3.29,8.85-8.72,7.04-14.03-1.18-3.47-4.02-6.48-6.92-8.82-7.82-6.31-17.97-10.51-27.82-13.3-.07-.02-.16,.02-.18,.09-2.43,7.66-5.29,15.11-8.59,22.34Zm-17.38,32.48c6.01-.85,11.95-1.72,18.03-3.09,.15-.04,.21-.13,.16-.28-1.78-5.52-3.95-11.19-6.5-16.99-.02-.05-.08-.07-.13-.05-.02,0-.03,.02-.04,.04-3.66,7.01-7.53,13.75-11.62,20.2-.03,.05-.02,.11,.03,.14,.02,.01,.05,.02,.07,.02Zm-75.59-2.71c5.6,1.23,11.81,2.2,17.72,2.86,.18,.02,.23-.05,.12-.2-4.23-6.58-8.07-13.22-11.52-19.91-.09-.17-.17-.17-.24,.01-2.35,5.57-4.43,11.22-6.24,16.95-.05,.16,0,.25,.16,.28Zm98.29,38.01c.61-3.65,.82-7.48,.68-11.04-.26-6.41-1.18-12.79-2.78-19.12-.02-.09-.11-.15-.21-.13-8.79,1.94-17.51,3.28-26.16,4.02-.27,.02-.51,.16-.66,.38-5.04,7.35-10.45,14.21-16.22,20.6-.05,.06-.05,.14,0,.2,7.31,7.13,16.26,14.03,25.65,17.44,3.72,1.35,8.48,2.32,12.14,.89,4.65-1.82,6.74-8.44,7.55-13.25Zm-74.57-26.12c-8.75-.72-17.53-1.92-26.09-3.78-.07-.02-.15,.03-.16,.1-2.53,10.14-4,20.97-2.25,31.06,.48,2.77,1.34,5.31,2.6,7.61,1.48,2.72,3.72,4.5,6.87,4.89,3.63,.44,7.55-.46,10.97-1.74,9.3-3.48,17.98-9.98,25.22-16.97,.12-.11,.12-.22,.01-.34-5.92-6.41-11.44-13.24-16.57-20.49-.15-.21-.35-.32-.61-.35Zm12.92,.74c-.42-.02-.86-.01-1.3,.01-.15,0-.18,.07-.09,.19,3.61,4.75,7.48,9.38,11.62,13.91,.04,.04,.11,.05,.15,0,0,0,0,0,0,0,4.02-4.47,7.83-9.15,11.42-14.05,.09-.12,.06-.17-.09-.16-7.16,.31-14.4,.34-21.72,.1Z"/>
  <circle class="cls-2" cx="221.56" cy="222.13" r="17.63"/>
</svg>