<?xml version="1.0" encoding="UTF-8"?>
<svg id="Capa_1" data-name="Capa 1" xmlns="http://www.w3.org/2000/svg" viewBox="0 0 1250 1250">
  <defs>
    <style>
      .cls-1 {
        fill: #ffcf31;
      }
    </style>
  </defs>
  <path class="cls-1" d="M686.86,243.09c-40.25-8.71-81.38-7.93-121.14,1.26-3.13,.68-6.23-1.27-6.93-4.35-.25-1.1-.16-2.24,.25-3.29l61.54-157.33c.82-2.15,3.22-3.23,5.37-2.41,1.08,.41,1.94,1.25,2.37,2.32l63.09,158.4c.79,2.1-.22,4.45-2.27,5.25-.73,.29-1.52,.34-2.28,.17Z"/>
  <path class="cls-1" d="M713.57,238.35l117.56-119.6c1.49-1.6,4-1.69,5.61-.2,.83,.77,1.29,1.87,1.26,3.01l-.29,167.69c-.04,2.19-1.85,3.93-4.04,3.89-.51,0-1.01-.12-1.48-.31l-117.27-48.09c-2.02-.84-2.98-3.17-2.13-5.19,.18-.44,.45-.85,.78-1.2Z"/>
  <path class="cls-1" d="M413.9,290.22l-3.19-170.97c-.06-1.92,1.45-3.53,3.37-3.59,.99-.03,1.94,.36,2.63,1.07l119.11,122.79c1.33,1.39,1.28,3.6-.12,4.92-.3,.29-.66,.52-1.05,.69l-115.92,48.19c-1.77,.75-3.82-.08-4.56-1.85-.17-.39-.26-.82-.27-1.24Z"/>
  <path class="cls-1" d="M855.03,300.47l152.69-66.09c2.42-1,5.19,.15,6.19,2.57,.48,1.16,.48,2.46,0,3.62l-67.05,152.2c-1.03,2.41-3.82,3.52-6.23,2.49-.57-.24-1.08-.6-1.51-1.04l-85.54-86.12c-1.83-1.87-1.8-4.87,.07-6.7,.4-.39,.87-.71,1.38-.94Z"/>
  <path class="cls-1" d="M301.56,397.43l-68.51-158.3c-.66-1.63,.12-3.5,1.76-4.16,.77-.31,1.63-.31,2.41,0l158.3,68.51c1.64,.66,2.43,2.52,1.77,4.15-.16,.4-.4,.77-.71,1.07l-89.79,89.79c-1.24,1.25-3.27,1.25-4.52,0-.31-.31-.55-.67-.71-1.07Z"/>
  <circle class="cls-1" cx="624.74" cy="624.04" r="350.56"/>
  <path class="cls-1" d="M962.05,411.94l161.78-2.81c3.58-.07,6.54,2.78,6.6,6.36,.03,1.79-.68,3.52-1.96,4.77l-115.53,113.31c-2.55,2.52-6.65,2.49-9.17-.05-.59-.6-1.06-1.3-1.38-2.08l-46.25-110.5c-1.39-3.3,.16-7.1,3.46-8.49,.77-.33,1.6-.5,2.44-.51Z"/>
  <path class="cls-1" d="M237.32,533.57l-116.69-113.69c-2.08-2.07-2.09-5.44-.02-7.53,1-1.01,2.37-1.57,3.79-1.57l162.94,1.55c2.94,.04,5.29,2.46,5.24,5.4-.01,.67-.15,1.33-.4,1.95l-46.25,112.14c-1.15,2.71-4.27,3.97-6.97,2.83-.61-.26-1.16-.63-1.64-1.09Z"/>
  <path class="cls-1" d="M236.06,690.22l-159.46-62.6c-1.56-.56-2.37-2.27-1.81-3.83,.29-.81,.92-1.46,1.72-1.78l159.07-63.76c1.53-.64,3.29,.08,3.93,1.6,.16,.38,.24,.79,.23,1.2l.39,126.37c0,1.66-1.34,3-3,3-.36,0-.73-.07-1.07-.2Z"/>
  <path class="cls-1" d="M1013.62,558.53l159.75,61.64c1.6,.6,2.42,2.38,1.83,3.98-.31,.85-.98,1.51-1.83,1.83l-159.07,63.38c-1.59,.64-3.39-.12-4.03-1.71-.14-.35-.22-.72-.23-1.1l-.58-125.11c0-1.71,1.39-3.09,3.1-3.09,.36,0,.72,.06,1.06,.19Z"/>
  <path class="cls-1" d="M289.86,835.46l-169.14,2.03c-1.87-.03-3.36-1.56-3.34-3.43,.01-.89,.38-1.75,1.02-2.37l120.95-118.14c1.34-1.31,3.48-1.29,4.79,.05,.31,.32,.56,.7,.73,1.11l48.09,116.02c.75,1.71-.03,3.71-1.75,4.46-.42,.19-.88,.28-1.35,.28Z"/>
  <path class="cls-1" d="M1012.46,715.86l115.34,111.08c2.14,2.09,2.17,5.52,.08,7.66-1.01,1.04-2.4,1.62-3.85,1.63l-162.75-.77c-2.99,.03-5.44-2.38-5.47-5.37,0-.75,.14-1.49,.44-2.18l47.51-110.31c1.2-2.74,4.4-3.99,7.14-2.79,.58,.25,1.11,.61,1.57,1.05Z"/>
  <path class="cls-1" d="M948.41,853.75l66.38,152.2c1.08,2.5-.08,5.41-2.58,6.48-1.24,.54-2.65,.54-3.9,0l-152.4-65.8c-2.51-1.07-3.67-3.97-2.6-6.48,.25-.58,.61-1.11,1.05-1.55l86.02-86.31c1.91-1.95,5.03-1.97,6.98-.07,.44,.43,.8,.95,1.05,1.52Z"/>
  <path class="cls-1" d="M396.49,947.51l-155.78,66.47c-1.62,.69-3.5-.06-4.19-1.68-.35-.82-.34-1.76,.03-2.57l66.96-155.49c.69-1.62,2.57-2.37,4.19-1.68,.35,.15,.66,.36,.94,.61l88.83,89.21c1.23,1.27,1.2,3.29-.07,4.52-.26,.25-.57,.46-.9,.61Z"/>
  <path class="cls-1" d="M535.14,1010.3l-114.08,116.31c-1.93,1.92-5.05,1.92-6.98-.01-.92-.92-1.44-2.17-1.44-3.47l.48-162.85c.02-2.73,2.24-4.92,4.97-4.9,.62,0,1.23,.12,1.81,.36l113.5,46.54c2.54,.99,3.79,3.86,2.79,6.39-.24,.61-.6,1.17-1.05,1.64Z"/>
  <path class="cls-1" d="M837.42,961.25l.68,164.1c.04,2.99-2.35,5.45-5.34,5.5-1.48,.02-2.91-.57-3.95-1.63l-113.89-118.24c-2.09-2.14-2.05-5.57,.09-7.66,.5-.49,1.1-.88,1.75-1.14l113.11-45.96c2.75-1.18,5.94,.1,7.11,2.85,.29,.69,.44,1.43,.44,2.18Z"/>
  <path class="cls-1" d="M690.44,1013.3l-62.31,158.11c-.66,1.58-2.48,2.32-4.05,1.65-.75-.31-1.34-.91-1.65-1.65l-64.64-159.36c-.64-1.59,.12-3.39,1.71-4.03,.38-.15,.78-.23,1.19-.23l126.95,1.35c1.71,.06,3.05,1.49,2.99,3.2-.01,.33-.07,.66-.19,.96Z"/>
</svg>