<?xml version="1.0" encoding="UTF-8"?>
<svg id="Capa_1" data-name="Capa 1" xmlns="http://www.w3.org/2000/svg" viewBox="0 0 1061.72 1024.75">
  <defs>
    <style>
      .cls-1, .cls-2 {
        fill: #fff;
      }

      .cls-3, .cls-4, .cls-5, .cls-2 {
        stroke: #000;
        stroke-miterlimit: 10;
      }

      .cls-3, .cls-6, .cls-7, .cls-8, .cls-2, .cls-9 {
        stroke-width: 2px;
      }

      .cls-3, .cls-10 {
        fill: #ececec;
      }

      .cls-4 {
        fill: #ff0307;
        stroke-width: .5px;
      }

      .cls-6 {
        stroke: #f6f6f6;
      }

      .cls-6, .cls-7, .cls-8, .cls-9 {
        fill: none;
      }

      .cls-7 {
        stroke: #9cd6ea;
      }

      .cls-5 {
        fill: #fcb040;
        stroke-width: .75px;
      }

      .cls-8 {
        stroke: #a0a0a1;
      }

      .cls-9 {
        stroke: #a5dff4;
      }

      .cls-11 {
        fill: #414143;
      }

      .cls-12 {
        fill: #4bbfe8;
      }
    </style>
  </defs>
  <path class="cls-2" d="M952.47,62.47c-4.41,8.65-9.19,16.85-14.32,24.59-3.17-2.82-6.81-3.9-10.91-3.22-6,.98-9.47,4.67-9.56,10.77-.05,3.81,1.69,6.87,5.21,9.18-2.17,5.27-5.72,9.51-10.67,12.73-2.32-.58-4.46-.5-6.42,.24-3.69,1.39-5.12,3.94-4.3,7.64-.12,1.28-1.12,2.25-3.01,2.91-.2-6.92-3.83-11.68-11.38-11.05-1.29,.11-2.46,.63-3.52,1.57-.22,.19-.48,.29-.77,.29-.45,0-.67-.22-.67-.67,0-.54-.44-.99-.98-1l-4.83-.14c-.57-.01-.85,.26-.85,.83l-.08,24.92c-.61,.44-1.43,.71-2.45,.82-1.02,.11-1.83,.28-2.44,.52-12.58,4.95-25.56,8.41-38.93,10.39-2.38,.35-5.89,.67-10.53,.97-3.61,.22-7.13,.54-10.57,.93-.15-.79-.23-1.65-.25-2.57-.06-2.53-2.11-5.6-3.23-7.92-8.44-17.34-10.74-36.31-6.11-55.21,8.4-34.23,35.55-58.68,70.23-64.18,6.95-1.1,13.56-1.26,19.83-.48,17.59,2.19,33.01,8.81,46.28,19.85,6.13,5.11,11.21,10.88,15.24,17.3Zm-77.02,23.95c-.47,.5-.7,.4-.68-.28l.18-9.56c.01-.63-.3-.95-.93-.93l-5.39,.07c-.35,0-.63,.29-.63,.64v27.98c0,.54,.28,.81,.82,.79l5.26-.1c.4,0,.6-.21,.6-.6l.22-10.52c.05-2.11,1.09-3.46,3.13-4.02,2.75-.76,4.77,.84,4.82,3.61,.07,3.78,.09,7.36,.06,10.74,0,.65,.31,.97,.96,.97l4.95-.04c.64,0,.95-.33,.94-.97-.06-3.83-.1-7.96-.11-12.4-.02-8.29-8.93-10.85-14.2-5.37Zm-22.27,10.14c-.04,.18-.23,.29-.41,.25-.12-.03-.22-.12-.25-.25l-4.93-18.8c-.04-.15-.17-.25-.33-.25h-6.44c-.16,0-.29,.11-.33,.26l-4.84,18.91c-.04,.18-.23,.29-.41,.25-.12-.03-.22-.12-.25-.25l-4.97-18.91c-.04-.15-.17-.25-.33-.25l-6.82-.05c-.19,0-.34,.15-.34,.34,0,.04,0,.07,.02,.11l8.83,26.89c.05,.14,.17,.23,.32,.23l6.75,.1c.16,0,.29-.11,.33-.26l4.78-17.72c.04-.18,.23-.29,.41-.25,.12,.03,.22,.12,.25,.25l4.72,17.77c.04,.15,.17,.25,.33,.25h6.71c.14,0,.27-.09,.32-.23l9.11-27.07c.06-.18-.03-.37-.21-.43-.03-.01-.07-.02-.11-.02l-6.9-.05c-.16,0-.29,.11-.33,.26l-4.7,18.92Zm62.44-3.19c-.08-5.38-4.51-9.67-9.89-9.58h0l-3.39,.05c-5.38,.08-9.67,4.51-9.58,9.89l.03,1.84c.08,5.38,4.51,9.67,9.89,9.58h0l3.39-.05c5.38-.08,9.67-4.51,9.58-9.89h0s-.03-1.84-.03-1.84Zm-69.21,32.65c0-5.39-4.37-9.75-9.75-9.75h-3.39c-5.39,0-9.75,4.37-9.75,9.75v1.84c0,5.39,4.37,9.75,9.75,9.75h3.39c5.39,0,9.75-4.37,9.75-9.75v-1.84Zm25.05,0c0-5.39-4.37-9.75-9.75-9.75h-3.35c-5.39,0-9.75,4.37-9.75,9.75v1.86c0,5.39,4.37,9.75,9.75,9.75h3.35c5.39,0,9.75-4.37,9.75-9.75h0v-1.86Z"/>
  <path class="cls-3" d="M952.47,62.47c8.33,12.85,13.08,26.46,14.24,40.82,2.21,27.61-11.57,57.39-34.15,73.44-12.93,9.18-26.98,14.61-42.16,16.29-19.89,2.2-40.71-4.43-56.76-15.86-2.12-1.51-5.38-2.04-7.7-1.05-8.57,3.65-17.23,7.4-25.99,11.24-.38,.17-.51,.05-.37-.34l10.92-31.34c3.44-.4,6.96-.71,10.57-.93,4.64-.3,8.15-.62,10.53-.97,13.37-1.98,26.35-5.44,38.93-10.39,.61-.24,1.42-.41,2.44-.52,1.02-.11,1.83-.39,2.45-.82-.2,.83-.16,1.68,.13,2.55,.13,.4,.41,.59,.82,.59l5.06-.02c.69,0,1.02-.35,1-1.04l-.3-8.4c-.01-.26,.19-.49,.45-.5,.13,0,.26,.04,.35,.13,2.8,2.63,6.14,3.15,10.04,1.56,3.72-1.52,5.52-5.69,5.53-9.62,1.89-.67,2.89-1.64,3.01-2.91,1.64,4.22,5.98,4.5,9.64,5.96,.95,.38,1.24,.97,.87,1.77-.26,.53-.78,.88-1.37,.91-2.51,.14-4.93-.48-7.27-1.85-.58-.33-1.32-.14-1.65,.43-.02,.03-.03,.06-.05,.09l-.98,2.1c-.35,.75-.17,1.32,.56,1.72,4.08,2.29,8.19,2.85,12.31,1.68,6.25-1.78,7.23-9.14,.71-11.74-1.9-.76-3.95-1.35-5.91-1.87-.6-.17-.99-.74-.92-1.35,.1-.96,.63-1.44,1.6-1.43,2.24,.03,4.39,.6,6.43,1.72,.42,.23,.95,.07,1.19-.35l1.58-2.77c.31-.55,.19-.98-.37-1.29-2.08-1.18-3.97-1.72-5.65-1.63,4.94-3.22,8.5-7.46,10.67-12.73,3.85,1.88,7.6,2.11,11.25,.68,3.68-1.43,5.84-3.97,6.48-7.61,.68-3.89-.15-7.15-2.48-9.79,5.13-7.74,9.9-15.93,14.32-24.59Zm-24.62,47.56l-5.19-.02c-.31,0-.56,.24-.57,.55h0s-.02,4.53-.02,4.53c-.04,7.2,.69,13.04,1.63,13.05l2.91,.02c.94,0,1.73-5.82,1.76-13.02,0,0,0,0,0,0l.02-4.53c0-.31-.24-.56-.55-.57h0Zm.36,24.5c0-1.78-1.44-3.22-3.22-3.22s-3.22,1.44-3.22,3.22,1.44,3.22,3.22,3.22,3.22-1.44,3.22-3.22Z"/>
  <g>
    <path class="cls-2" d="M894.83,349.44c-29.37,17.55-59,32.23-88.87,44.06-66.57,26.36-136.07,41.93-208.51,46.72-34.66,2.29-68.74,2.3-102.24,.03-87.37-5.9-174.34-26.36-256.51-57.23-26.81-10.07-53.28-21.17-79.41-33.29,7.57-22.03,19.41-41.43,35.53-58.2,26.2-27.27,61.85-43.51,99.34-47.23,2.12-.21,3.36-1.39,3.72-3.55,7.36-43.74,32.38-82.8,69.6-106.63,21.39-13.69,44.64-21.89,69.77-24.59,51.6-5.56,105.09,17.79,137.16,58.27,.22,.27,.5,.48,.83,.59,2,.67,4.1,.59,6.3-.24,19.66-7.39,38.8-10.95,57.41-10.66,26.08,.41,50.82,7.07,74.21,19.98,24.95,13.77,44.56,32.91,58.81,57.41,1.99,3.41,3.99,7.03,6.02,10.86,.62,1.17,1.53,1.62,2.83,1.87,27.41,5.31,50.77,16.3,70.08,32.97,21.36,18.45,36,41.4,43.93,68.86Zm-502.42,3.19c18.46,4.75,36.08-9.62,35.33-28.56-.01-.41-.23-.78-.57-1l-5.69-3.64c-.39-.25-.7-.17-.92,.24-4.64,8.49-15.16,10.85-22.63,4.92-6.38-5.06-7.44-14.56-2.28-20.97,.25-.32,.19-.78-.12-1.03-.02-.01-.03-.02-.05-.03l-4.92-3.2c-.68-.44-1.55-.49-2.28-.14-9.09,4.41-14.58,11.25-16.47,20.5-2.98,14.68,6.07,29.18,20.6,32.91Zm266.51-38.62c-1.16,15.18-21.22,18.97-28.19,5.71-.19-.36-.63-.49-.99-.3-.02,.01-.04,.02-.06,.03l-5.41,3.54c-.41,.27-.66,.73-.68,1.22-.61,17.12,13.53,30.37,30.39,29.24,7.85-.53,15.6-4.74,20.3-11.06,11.12-14.92,5.55-36.29-12.05-43.41-.32-.13-.62-.11-.91,.08l-5.67,3.56c-.24,.15-.31,.46-.16,.7,.01,.02,.02,.03,.03,.05,2.56,3.22,3.69,6.77,3.4,10.64Zm-166.4,98.6c.08-8.72,3.1-17.07,9.03-23.31,20.93-22.01,56.55-7.21,57.17,22.45,.11,5.61,7.88,5.47,8.17,.86,.43-6.97-1.18-13.78-4.81-20.43-10.26-18.77-33.83-27.57-53.85-17.92-12.72,6.13-20.52,16.26-23.39,30.41-.49,2.38-.66,4.8-.53,7.26,.14,2.51,1.46,3.87,3.96,4.08,1.02,.09,2.01-.21,2.96-.9,.8-.58,1.28-1.51,1.29-2.5Z"/>
    <path class="cls-3" d="M159.29,349.73c26.13,12.12,52.6,23.22,79.41,33.29,82.17,30.87,169.14,51.33,256.51,57.23,33.5,2.27,67.58,2.26,102.24-.03,72.44-4.79,141.94-20.36,208.51-46.72,29.87-11.83,59.5-26.51,88.87-44.06,5.59,19.01,7.16,37.83,4.7,56.45-3.36,25.45-12.64,48.43-27.85,68.95-.21,.28-.55,.45-.91,.45H170.49c-.17,0-.32-.09-.4-.24-8.41-15.49-14.12-31.97-17.15-49.42-4.44-25.62-2.32-50.92,6.35-75.9Z"/>
  </g>
  <g>
    <path class="cls-6" d="M953.79,62.29c-4.45,8.73-9.27,16.99-14.44,24.8" vector-effect="non-scaling-stroke"/>
    <path class="cls-9" d="M939.35,87.09c-3.2-2.85-6.87-3.93-11.01-3.25-6.05,.99-9.55,4.71-9.64,10.86-.05,3.84,1.7,6.93,5.26,9.26" vector-effect="non-scaling-stroke"/>
    <path class="cls-6" d="M923.96,103.96c-2.19,5.31-5.77,9.59-10.76,12.84" vector-effect="non-scaling-stroke"/>
    <path class="cls-9" d="M913.2,116.8c-2.34-.59-4.5-.51-6.48,.24-3.72,1.41-5.17,3.98-4.34,7.71" vector-effect="non-scaling-stroke"/>
    <path class="cls-6" d="M902.38,124.75c-.12,1.29-1.13,2.27-3.04,2.94" vector-effect="non-scaling-stroke"/>
    <path class="cls-9" d="M899.34,127.69c-.2-6.98-3.86-11.78-11.48-11.15-1.3,.11-2.48,.64-3.55,1.58-.22,.19-.48,.29-.78,.29-.45,0-.68-.23-.68-.68,0-.55-.44-.99-.99-1.01l-4.87-.14c-.57-.01-.86,.27-.86,.84l-.08,25.14" vector-effect="non-scaling-stroke"/>
    <path class="cls-6" d="M876.05,142.56c-.62,.44-1.44,.72-2.47,.83-1.03,.11-1.85,.28-2.46,.52-12.69,4.99-25.78,8.49-39.27,10.48-2.4,.35-5.94,.68-10.62,.98-3.64,.23-7.19,.54-10.66,.94" vector-effect="non-scaling-stroke"/>
    <path class="cls-7" d="M876.05,142.56c-.21,.83-.16,1.69,.13,2.57,.13,.4,.41,.6,.83,.6l5.1-.02c.69,0,1.03-.35,1.01-1.05l-.3-8.47c-.01-.26,.19-.49,.46-.5,.13,0,.26,.04,.35,.13,2.82,2.65,6.2,3.18,10.13,1.57,3.75-1.53,5.57-5.74,5.58-9.7" vector-effect="non-scaling-stroke"/>
    <path class="cls-7" d="M902.38,124.75c1.65,4.26,6.03,4.54,9.72,6.01,.96,.39,1.25,.98,.88,1.79-.26,.54-.79,.89-1.38,.92-2.53,.14-4.98-.48-7.33-1.87-.58-.34-1.33-.14-1.66,.44-.02,.03-.03,.06-.05,.09l-.99,2.12c-.35,.75-.17,1.33,.56,1.74,4.12,2.31,8.26,2.88,12.42,1.69,6.3-1.8,7.29-9.22,.72-11.84-1.92-.77-3.98-1.36-5.96-1.89-.61-.17-1-.75-.93-1.36,.1-.97,.64-1.45,1.61-1.44,2.26,.03,4.42,.61,6.49,1.73,.43,.23,.96,.07,1.2-.35l1.59-2.79c.31-.55,.19-.99-.37-1.3-2.1-1.19-4-1.73-5.7-1.64" vector-effect="non-scaling-stroke"/>
    <path class="cls-7" d="M923.96,103.96c3.89,1.9,7.67,2.13,11.35,.69,3.71-1.45,5.89-4.01,6.54-7.68,.69-3.92-.15-7.21-2.5-9.88" vector-effect="non-scaling-stroke"/>
    <path class="cls-6" d="M893.44,349.37c-29.37,17.55-59,32.23-88.87,44.06-66.57,26.36-136.07,41.93-208.51,46.72-34.66,2.29-68.74,2.3-102.24,.03-87.37-5.9-174.34-26.36-256.51-57.23-26.81-10.07-53.28-21.17-79.41-33.29" vector-effect="non-scaling-stroke"/>
    <path class="cls-9" d="M876.1,86.45c-.47,.5-.7,.41-.69-.28l.18-9.64c.01-.64-.3-.95-.94-.94l-5.44,.07c-.36,0-.64,.29-.64,.65v28.22c.01,.55,.28,.81,.83,.8l5.31-.1c.4,0,.6-.21,.61-.61l.22-10.61c.05-2.13,1.1-3.49,3.16-4.06,2.77-.77,4.81,.85,4.86,3.64,.07,3.81,.09,7.42,.06,10.83,0,.65,.32,.98,.97,.98l4.99-.04c.65,0,.96-.33,.95-.98-.06-3.86-.1-8.03-.11-12.51-.02-8.36-9.01-10.94-14.32-5.42" vector-effect="non-scaling-stroke"/>
    <path class="cls-9" d="M853.64,96.68c-.05,.18-.23,.29-.41,.25-.12-.03-.22-.13-.25-.25l-4.97-18.96c-.04-.15-.18-.25-.33-.25h-6.5c-.16,0-.29,.11-.33,.26l-4.88,19.08c-.05,.18-.23,.29-.41,.25-.12-.03-.22-.13-.25-.25l-5.01-19.07c-.04-.15-.18-.25-.33-.25l-6.88-.05c-.19,0-.34,.15-.34,.34,0,.04,0,.07,.02,.11l8.91,27.12c.05,.14,.18,.23,.32,.23l6.81,.1c.16,0,.29-.11,.33-.26l4.82-17.87c.05-.18,.23-.29,.41-.25,.12,.03,.22,.13,.25,.25l4.76,17.92c.04,.15,.18,.25,.33,.25h6.77c.14,0,.27-.09,.32-.23l9.19-27.31c.06-.18-.03-.37-.21-.43-.03-.01-.07-.02-.11-.02l-6.96-.05c-.16,0-.29,.11-.33,.26l-4.74,19.08" vector-effect="non-scaling-stroke"/>
    <path class="cls-9" d="M916.63,93.46c-.09-5.42-4.55-9.75-9.97-9.66h0l-3.42,.05c-5.42,.09-9.75,4.55-9.66,9.97l.03,1.86c.09,5.42,4.55,9.75,9.97,9.66h0l3.42-.05c5.42-.09,9.75-4.55,9.66-9.97h0s-.03-1.86-.03-1.86" vector-effect="non-scaling-stroke"/>
    <path class="cls-9" d="M846.81,126.39c0-5.43-4.41-9.84-9.84-9.84h-3.42c-5.43,0-9.84,4.41-9.84,9.84v1.86c0,5.43,4.41,9.84,9.84,9.84h3.42c5.43,0,9.84-4.41,9.84-9.84v-1.86" vector-effect="non-scaling-stroke"/>
    <path class="cls-9" d="M872.08,126.39c0-5.43-4.41-9.84-9.84-9.84h-3.38c-5.43,0-9.84,4.41-9.84,9.84v1.88c0,5.43,4.41,9.84,9.84,9.84h3.38c5.43,0,9.84-4.41,9.84-9.84h0v-1.88" vector-effect="non-scaling-stroke"/>
    <path class="cls-7" d="M928.96,110.26l-5.24-.02c-.31,0-.56,.24-.57,.55h0s-.02,4.57-.02,4.57c-.04,7.26,.7,13.15,1.64,13.16l2.94,.02c.94,0,1.74-5.87,1.78-13.13,0,0,0,0,0,0l.02-4.57c0-.31-.24-.56-.55-.57h0" vector-effect="non-scaling-stroke"/>
    <path class="cls-7" d="M929.32,134.97c0-1.79-1.46-3.25-3.25-3.25s-3.25,1.46-3.25,3.25,1.46,3.25,3.25,3.25,3.25-1.46,3.25-3.25" vector-effect="non-scaling-stroke"/>
    <path class="cls-9" d="M905.08,100.22c2.76,.03,5.02-2.45,5.05-5.53,.03-3.08-2.18-5.6-4.93-5.63h0c-2.76-.03-5.02,2.45-5.05,5.53-.03,3.08,2.18,5.6,4.93,5.63h0" vector-effect="non-scaling-stroke"/>
    <path class="cls-9" d="M929.75,100.13c2.68,.25,5.09-2.02,5.38-5.09h0c.29-3.06-1.65-5.75-4.33-6-2.68-.25-5.09,2.02-5.38,5.09h0c-.29,3.06,1.65,5.75,4.33,6" vector-effect="non-scaling-stroke"/>
    <path class="cls-8" d="M391.02,352.56c18.46,4.75,36.08-9.62,35.33-28.56-.01-.41-.23-.78-.57-1l-5.69-3.64c-.39-.25-.7-.17-.92,.24-4.64,8.49-15.16,10.85-22.63,4.92-6.38-5.06-7.44-14.56-2.28-20.97,.25-.32,.19-.78-.12-1.03-.02-.01-.03-.02-.05-.03l-4.92-3.2c-.68-.44-1.55-.49-2.28-.14-9.09,4.41-14.58,11.25-16.47,20.5-2.98,14.68,6.07,29.18,20.6,32.91" vector-effect="non-scaling-stroke"/>
    <path class="cls-8" d="M657.53,313.94c-1.16,15.18-21.22,18.97-28.19,5.71-.19-.36-.63-.49-.99-.3-.02,.01-.04,.02-.06,.03l-5.41,3.54c-.41,.27-.66,.73-.68,1.22-.61,17.12,13.53,30.37,30.39,29.24,7.85-.53,15.6-4.74,20.3-11.06,11.12-14.92,5.55-36.29-12.05-43.41-.32-.13-.62-.11-.91,.08l-5.67,3.56c-.24,.15-.31,.46-.16,.7,.01,.02,.02,.03,.03,.05,2.56,3.22,3.69,6.77,3.4,10.64" vector-effect="non-scaling-stroke"/>
    <path class="cls-8" d="M491.13,412.54c.08-8.72,3.1-17.07,9.03-23.31,20.93-22.01,56.55-7.21,57.17,22.45,.11,5.61,7.88,5.47,8.17,.86,.43-6.97-1.18-13.78-4.81-20.43-10.26-18.77-33.83-27.57-53.85-17.92-12.72,6.13-20.52,16.26-23.39,30.41-.49,2.38-.66,4.8-.53,7.26,.14,2.51,1.46,3.87,3.96,4.08,1.02,.09,2.01-.21,2.96-.9,.8-.58,1.28-1.51,1.29-2.5" vector-effect="non-scaling-stroke"/>
    <path class="cls-9" d="M840.05,126.49c.08-2.4-1.8-4.41-4.2-4.49h0l-.82-.03c-2.4-.08-4.41,1.8-4.49,4.2l-.07,2.06c-.08,2.4,1.8,4.41,4.2,4.49h0l.82,.03c2.4,.08,4.41-1.8,4.49-4.2l.07-2.06" vector-effect="non-scaling-stroke"/>
    <path class="cls-9" d="M860.25,132.99c2.71,.14,5.04-2.25,5.2-5.33,.16-3.08-1.92-5.69-4.63-5.83s-5.04,2.25-5.2,5.33c-.16,3.08,1.92,5.69,4.63,5.83" vector-effect="non-scaling-stroke"/>
    <path class="cls-9" d="M887.69,132.82c2.67,0,4.84-2.51,4.85-5.62h0c.01-3.11-2.14-5.65-4.81-5.66h0c-2.67,0-4.84,2.51-4.85,5.62h0c-.01,3.11,2.14,5.65,4.81,5.66h0" vector-effect="non-scaling-stroke"/>
  </g>
  <path class="cls-12" d="M377.41,84.77c11.71-6.83,23.79-10.97,36.22-12.4,2.86-.33,3.99-1.42,4.53-4.11,7.19-36.02,32.57-60.84,68.58-67.22,2.97-.53,5.89-.54,8.9-.89,1.82-.21,3.59-.2,5.31,.04,2.39,.33,4.75,.24,7.14,.61,20.83,3.18,39.08,13.11,52.6,29.01,1.96,2.31,5.04,2.42,7.55,1.63,7.79-2.47,15.34-4.57,23.51-5.2,5.18-.41,10.55-.17,16.1,.7,17.39,2.75,32.59,10.32,45.59,22.72,5.8,5.53,11.05,12.77,15.74,21.7,.71,1.34,1.97,2.52,3.51,2.79,35.62,6.26,60.16,35.97,62.1,71.36,.02,.41-.14,.51-.49,.3-21.83-12.87-45.65-20.99-71.48-24.35-6.17-.81-12.82-1.27-19.96-1.4-10.58-.19-19.69,.05-27.33,.71-8.93,.77-18.42,2.42-28.49,4.96-.35,.09-.65,.01-.9-.23-6.39-6.12-12.43-11.33-18.11-15.62-30.05-22.73-63.83-35.49-101.33-38.27-8.2-.61-16.61-.47-24.85-.31-7.33,.14-15.84,1.02-25.52,2.65-14.33,2.41-27.91,6.43-40.73,12.05-.02,.01-.06,0-.07-.02-.01-.02,0-.06,.02-.07h0c.61-.39,1.23-.77,1.86-1.14Z"/>
  <path class="cls-1" d="M952.58,62.09c-4.42,8.68-9.19,16.9-14.33,24.67-3.17-2.83-6.82-3.91-10.92-3.23-6,.98-9.48,4.69-9.56,10.8-.05,3.82,1.69,6.89,5.22,9.21-2.17,5.29-5.73,9.54-10.68,12.77-2.32-.58-4.46-.5-6.43,.24-3.69,1.4-5.13,3.96-4.31,7.67-.12,1.28-1.12,2.25-3.02,2.92-.2-6.94-3.83-11.72-11.39-11.09-1.29,.11-2.46,.64-3.52,1.57-.22,.19-.48,.29-.77,.29-.45,0-.67-.23-.67-.68,0-.55-.44-.99-.98-1l-4.83-.14c-.57-.01-.85,.27-.85,.84l-.08,25.01c-.62,.44-1.43,.71-2.45,.83-1.02,.11-1.83,.28-2.44,.52-12.59,4.97-25.58,8.44-38.96,10.43-2.38,.35-5.89,.68-10.54,.97-3.61,.23-7.14,.54-10.58,.94-.15-.8-.23-1.65-.25-2.58-.06-2.54-2.11-5.62-3.23-7.95-8.44-17.4-10.75-36.44-6.11-55.4,8.4-34.35,35.58-58.88,70.28-64.4,6.95-1.11,13.57-1.27,19.84-.48,17.6,2.2,33.04,8.84,46.31,19.92,6.14,5.13,11.22,10.91,15.25,17.36Zm-77.08,24.03c-.47,.5-.7,.4-.68-.28l.18-9.59c.01-.64-.3-.95-.93-.94l-5.4,.07c-.35,0-.64,.29-.63,.65v28.07c0,.54,.28,.81,.82,.8l5.27-.1c.4,0,.6-.21,.61-.61l.22-10.55c.05-2.12,1.09-3.47,3.14-4.04,2.75-.77,4.77,.85,4.82,3.62,.07,3.79,.09,7.38,.06,10.77,0,.65,.31,.97,.96,.97l4.95-.04c.64,0,.96-.33,.94-.97-.06-3.84-.1-7.99-.11-12.44-.02-8.32-8.94-10.88-14.21-5.39Zm-22.28,10.18c-.04,.18-.23,.29-.41,.25-.12-.03-.22-.13-.25-.25l-4.93-18.86c-.04-.15-.17-.25-.33-.25h-6.45c-.16,0-.29,.11-.33,.26l-4.84,18.98c-.04,.18-.23,.29-.41,.25-.12-.03-.22-.13-.25-.25l-4.97-18.97c-.04-.15-.17-.25-.33-.25l-6.83-.05c-.19,0-.34,.15-.34,.34,0,.04,0,.07,.02,.11l8.84,26.98c.05,.14,.17,.23,.32,.23l6.76,.1c.16,0,.29-.11,.33-.26l4.78-17.78c.04-.18,.23-.29,.41-.25,.12,.03,.22,.13,.25,.25l4.72,17.83c.04,.15,.17,.25,.33,.25h6.72c.14,0,.27-.09,.32-.23l9.12-27.17c.06-.18-.03-.37-.21-.43-.03-.01-.07-.02-.11-.02l-6.91-.05c-.16,0-.29,.11-.33,.26l-4.7,18.98Zm62.49-3.2c-.08-5.39-4.51-9.7-9.89-9.61h0l-3.39,.05c-5.38,.08-9.67,4.53-9.59,9.92l.03,1.85c.08,5.39,4.51,9.7,9.89,9.61h0l3.39-.05c5.38-.08,9.67-4.53,9.59-9.92h0s-.03-1.85-.03-1.85Zm-69.27,32.76c0-5.41-4.37-9.79-9.76-9.79h-3.39c-5.39,0-9.76,4.38-9.76,9.79v1.85c0,5.41,4.37,9.79,9.76,9.79h3.39c5.39,0,9.76-4.38,9.76-9.79v-1.85Zm25.07,0c0-5.41-4.37-9.79-9.76-9.79h-3.35c-5.39,0-9.76,4.38-9.76,9.79v1.87c0,5.41,4.37,9.79,9.76,9.79h3.35c5.39,0,9.76-4.38,9.76-9.79h0v-1.87Z"/>
  <path class="cls-10" d="M952.58,62.09c8.34,12.9,13.09,26.55,14.25,40.97,2.21,27.7-11.58,57.59-34.18,73.69-12.94,9.21-27,14.66-42.2,16.34-19.9,2.21-40.75-4.45-56.81-15.92-2.12-1.51-5.39-2.05-7.71-1.05-8.57,3.67-17.24,7.43-26.01,11.28-.38,.17-.51,.05-.37-.34l10.93-31.45c3.44-.4,6.96-.71,10.58-.94,4.64-.3,8.16-.62,10.54-.97,13.38-1.98,26.37-5.46,38.96-10.43,.61-.24,1.42-.41,2.44-.52,1.02-.11,1.84-.39,2.45-.83-.21,.83-.16,1.68,.13,2.56,.13,.4,.41,.6,.82,.6l5.06-.02c.69,0,1.02-.35,1-1.04l-.3-8.43c-.01-.26,.19-.49,.45-.5,.13,0,.26,.04,.35,.13,2.8,2.64,6.15,3.16,10.05,1.56,3.72-1.52,5.53-5.71,5.54-9.65,1.89-.67,2.9-1.64,3.02-2.92,1.64,4.24,5.98,4.52,9.64,5.98,.95,.38,1.24,.98,.87,1.78-.26,.53-.78,.89-1.37,.92-2.51,.14-4.94-.48-7.27-1.86-.58-.33-1.32-.14-1.65,.44-.02,.03-.03,.06-.05,.09l-.98,2.11c-.35,.75-.17,1.33,.56,1.73,4.09,2.3,8.2,2.86,12.32,1.68,6.25-1.79,7.23-9.17,.71-11.78-1.9-.77-3.95-1.35-5.91-1.88-.6-.17-.99-.74-.92-1.35,.1-.97,.63-1.45,1.6-1.43,2.24,.03,4.39,.61,6.44,1.72,.42,.23,.95,.07,1.19-.35l1.58-2.78c.31-.55,.19-.98-.37-1.29-2.08-1.18-3.97-1.72-5.66-1.63,4.95-3.23,8.51-7.49,10.68-12.77,3.86,1.89,7.61,2.12,11.26,.69,3.68-1.44,5.85-3.99,6.49-7.64,.68-3.9-.15-7.18-2.48-9.83,5.13-7.77,9.91-15.99,14.33-24.67Zm-24.64,47.72l-5.2-.02c-.31,0-.56,.24-.57,.55h0s-.02,4.55-.02,4.55c-.04,7.22,.69,13.08,1.63,13.09l2.92,.02c.94,0,1.73-5.84,1.77-13.06,0,0,0,0,0,0l.02-4.55c0-.31-.24-.56-.55-.57h0Zm.36,24.58c0-1.79-1.44-3.23-3.22-3.23s-3.22,1.45-3.22,3.23,1.44,3.23,3.22,3.23,3.22-1.45,3.22-3.23Z"/>
  <path class="cls-12" d="M876.1,86.45c5.31-5.52,14.3-2.94,14.32,5.42,.01,4.48,.05,8.65,.11,12.51,.01,.65-.3,.97-.95,.98l-4.99,.04c-.65,0-.98-.33-.97-.98,.03-3.41,0-7.02-.06-10.83-.05-2.79-2.09-4.41-4.86-3.64-2.06,.57-3.11,1.93-3.16,4.06l-.22,10.61c0,.4-.21,.6-.61,.61l-5.31,.1c-.55,.01-.82-.25-.82-.8v-28.22c-.01-.36,.27-.64,.63-.65l5.44-.07c.64-.01,.95,.3,.94,.94l-.18,9.64c-.01,.69,.22,.78,.69,.28Z"/>
  <path class="cls-12" d="M853.64,96.68l4.74-19.08c.04-.15,.17-.26,.33-.26l6.96,.05c.19,0,.34,.15,.34,.34,0,.04,0,.07-.02,.11l-9.19,27.31c-.05,.14-.18,.23-.32,.23h-6.77c-.15,0-.29-.1-.33-.25l-4.76-17.92c-.05-.18-.23-.29-.41-.25-.12,.03-.22,.13-.25,.25l-4.82,17.87c-.04,.15-.17,.26-.33,.26l-6.81-.1c-.14,0-.27-.09-.32-.23l-8.91-27.12c-.06-.18,.03-.37,.21-.43,.03-.01,.07-.02,.11-.02l6.88,.05c.15,0,.29,.1,.33,.25l5.01,19.07c.05,.18,.23,.29,.41,.25,.12-.03,.22-.13,.25-.25l4.88-19.08c.04-.15,.17-.26,.33-.26h6.5c.15,0,.29,.1,.33,.25l4.97,18.96c.05,.18,.23,.29,.41,.25,.12-.03,.22-.13,.25-.25Z"/>
  <path class="cls-12" d="M916.66,95.32c.09,5.42-4.24,9.89-9.66,9.97h0l-3.42,.05c-5.42,.09-9.89-4.24-9.97-9.66h0s-.03-1.86-.03-1.86c-.09-5.42,4.24-9.89,9.66-9.97l3.42-.05c5.42-.09,9.89,4.24,9.97,9.66h0s.03,1.86,.03,1.86Zm-11.57,4.9c2.76,.03,5.02-2.45,5.05-5.53,.03-3.08-2.18-5.6-4.93-5.63h0c-2.76-.03-5.02,2.45-5.05,5.53-.03,3.08,2.18,5.6,4.93,5.63h0Z"/>
  <path class="cls-12" d="M939.35,87.09c2.35,2.67,3.19,5.96,2.5,9.88-.65,3.67-2.83,6.23-6.54,7.68-3.68,1.44-7.46,1.21-11.35-.69-3.56-2.33-5.31-5.42-5.26-9.26,.09-6.15,3.59-9.87,9.64-10.86,4.14-.68,7.81,.4,11.01,3.25Zm-9.6,13.04c2.68,.25,5.09-2.02,5.38-5.09h0c.29-3.06-1.65-5.75-4.33-6-2.68-.25-5.09,2.02-5.38,5.09h0c-.29,3.06,1.65,5.75,4.33,6Z"/>
  <ellipse class="cls-1" cx="905.14" cy="94.64" rx="5.58" ry="4.99" transform="translate(801.03 998.74) rotate(-89.4)"/>
  <ellipse class="cls-1" cx="930.27" cy="94.58" rx="5.57" ry="4.88" transform="translate(748.57 1011.82) rotate(-84.6)"/>
  <path class="cls-12" d="M928.96,110.26c.31,0,.56,.26,.55,.57h0s-.02,4.57-.02,4.57c-.04,7.26-.83,13.15-1.78,13.14h0l-2.94-.02c-.94,0-1.68-5.9-1.64-13.16l.02-4.57c0-.31,.26-.56,.57-.55h0l5.24,.02Z"/>
  <path class="cls-12" d="M846.81,128.25c0,5.43-4.41,9.84-9.84,9.84h-3.42c-5.43,0-9.84-4.41-9.84-9.84v-1.86c0-5.43,4.41-9.84,9.84-9.84h3.42c5.43,0,9.84,4.41,9.84,9.84v1.86Zm-6.76-1.76c.08-2.4-1.8-4.41-4.2-4.49h0l-.82-.03c-2.4-.08-4.41,1.8-4.49,4.2l-.07,2.06c-.08,2.4,1.8,4.41,4.2,4.49h0l.82,.03c2.4,.08,4.41-1.8,4.49-4.2l.07-2.06Z"/>
  <path class="cls-12" d="M872.08,128.27c0,5.43-4.41,9.84-9.84,9.84h-3.38c-5.43,0-9.84-4.41-9.84-9.84v-1.88c0-5.43,4.41-9.84,9.84-9.84h3.38c5.43,0,9.84,4.41,9.84,9.84h0v1.88Zm-11.83,4.72c2.71,.14,5.04-2.25,5.2-5.33,.16-3.08-1.92-5.69-4.63-5.83s-5.04,2.25-5.2,5.33c-.16,3.08,1.92,5.69,4.63,5.83Z"/>
  <path class="cls-12" d="M899.34,127.69c-.01,3.96-1.83,8.17-5.58,9.7-3.93,1.61-7.31,1.08-10.13-1.57-.19-.18-.5-.17-.68,.02-.09,.09-.14,.22-.13,.35l.3,8.47c.02,.7-.32,1.05-1.01,1.05l-5.1,.02c-.42,0-.7-.2-.83-.6-.29-.88-.34-1.74-.13-2.57l.08-25.14c0-.57,.29-.85,.86-.84l4.87,.14c.55,.02,.98,.46,.99,1.01,0,.45,.23,.68,.68,.68,.3,0,.56-.1,.78-.29,1.07-.94,2.25-1.47,3.55-1.58,7.62-.63,11.28,4.17,11.48,11.15Zm-11.65,5.13c2.67,0,4.84-2.51,4.85-5.62h0c.01-3.11-2.14-5.65-4.81-5.66h0c-2.67,0-4.84,2.51-4.85,5.62h0c-.01,3.11,2.14,5.65,4.81,5.66h0Z"/>
  <path class="cls-12" d="M913.2,116.8c1.7-.09,3.6,.45,5.7,1.64,.56,.31,.68,.75,.37,1.3l-1.59,2.79c-.24,.42-.77,.58-1.2,.35-2.07-1.12-4.23-1.7-6.49-1.73-.97-.01-1.51,.47-1.61,1.44-.07,.61,.32,1.19,.93,1.36,1.98,.53,4.04,1.12,5.96,1.89,6.57,2.62,5.58,10.04-.72,11.84-4.16,1.19-8.3,.62-12.42-1.69-.73-.41-.91-.99-.56-1.74l.99-2.12c.28-.61,1.01-.86,1.62-.58,.03,.01,.06,.03,.09,.05,2.35,1.39,4.8,2.01,7.33,1.87,.59-.03,1.12-.38,1.38-.92,.37-.81,.08-1.4-.88-1.79-3.69-1.47-8.07-1.75-9.72-6.01-.83-3.73,.62-6.3,4.34-7.71,1.98-.75,4.14-.83,6.48-.24Z"/>
  <ellipse class="cls-1" cx="887.71" cy="127.18" rx="5.64" ry="4.83" transform="translate(757.43 1014.44) rotate(-89.8)"/>
  <rect class="cls-1" x="829.88" y="122.6" width="10.76" height="9.52" rx="4.35" ry="4.35" transform="translate(680.28 957.94) rotate(-88.1)"/>
  <ellipse class="cls-1" cx="860.53" cy="127.41" rx="5.59" ry="4.92" transform="translate(689.75 980.4) rotate(-87.1)"/>
  <path class="cls-12" d="M125.6,326.52c-.26,.65-.61,1.23-1.05,1.76-.2,.25-.45,.37-.76,.37-37.19,0-74.14,0-110.86,0-.83,0-1.66-.13-2.48-.39-.37-.12-.64-.35-.81-.7-11.95-23.92-12.79-47.7-2.52-71.35,7.78-17.91,20.12-31.44,37.02-40.61,10.58-5.74,21.81-9.18,33.68-10.33,1.69-.17,2.71-1.14,3.06-2.91,4.17-21.41,13.77-38.49,28.78-51.22,13.8-11.71,30.27-18.47,49.4-20.29,3.65-.35,7.45-.24,11.12,.12,20.15,1.97,37.72,10,52.73,24.07,2.44,2.29,4.44,4.87,6.57,7.39,1.58,1.87,6.14,1.04,8.17,.31,9.93-3.57,19.81-5.31,29.64-5.24,5.57,.04,11.95,.99,19.16,2.84,.37,.09,.45,.3,.25,.62-9.69,15.03-17.07,31.3-22.15,48.8-.09,.32-.3,.51-.63,.58-1.77,.34-3.54,.73-5.31,1.16-33.67,8.25-63.12,24.63-88.37,49.16-19.77,19.21-34.65,41.17-44.64,65.86Z"/>
  <circle class="cls-12" cx="926.07" cy="134.97" r="3.25"/>
  <path class="cls-12" d="M1021.51,284.25c7.1,1.49,13.85,4.5,20.26,9.04,9.58,6.78,15.95,18.04,18.76,29.35,3.3,13.3-.54,26.85-7.97,38.18-.27,.41-.73,.66-1.23,.66h-115.97c-.32,0-.49-.16-.51-.48-.09-1.53-.19-2.63-.31-3.3-5.55-32.17-18.51-60.44-38.9-84.82-7.75-9.27-16.99-18.25-27.72-26.93-.26-.21-.26-.42,.01-.63,10.23-7.77,24.39-13.13,37.37-11.74,15.26,1.64,27.92,8.34,37.99,20.1,1.81,2.11,7.51,.76,9.79,.05,5.35-1.68,10.38-2.57,15.09-2.67,4.34-.09,9.08,.62,14.23,2.13,15.35,4.48,26.56,13.35,33.62,26.61,1.14,2.14,3.03,3.94,5.49,4.45Z"/>
  <path class="cls-11" d="M426.35,324c.75,18.94-16.87,33.31-35.33,28.56-14.53-3.73-23.58-18.23-20.6-32.91,1.89-9.25,7.38-16.09,16.47-20.5,.73-.35,1.6-.3,2.28,.14l4.92,3.2c.34,.22,.43,.68,.2,1.01-.01,.02-.02,.03-.03,.05-5.16,6.41-4.1,15.91,2.28,20.97,7.47,5.93,17.99,3.57,22.63-4.92,.22-.41,.53-.49,.92-.24l5.69,3.64c.34,.22,.56,.59,.57,1Z"/>
  <path class="cls-11" d="M657.53,313.94c.29-3.87-.84-7.42-3.4-10.64-.18-.22-.14-.54,.08-.72,.02-.01,.03-.02,.05-.03l5.67-3.56c.29-.19,.59-.21,.91-.08,17.6,7.12,23.17,28.49,12.05,43.41-4.7,6.32-12.45,10.53-20.3,11.06-16.86,1.13-31-12.12-30.39-29.24,.02-.49,.27-.95,.68-1.22l5.41-3.54c.34-.22,.8-.12,1.02,.21,.01,.02,.02,.04,.03,.06,6.97,13.26,27.03,9.47,28.19-5.71Z"/>
  <g>
    <path class="cls-1" d="M894.43,349.37c-29.34,17.55-58.93,32.23-88.77,44.06-66.49,26.36-135.91,41.93-208.27,46.72-34.62,2.29-68.66,2.3-102.12,.03-87.27-5.9-174.14-26.36-256.21-57.23-26.78-10.07-53.21-21.17-79.32-33.29,7.56-22.03,19.39-41.43,35.49-58.2,26.17-27.27,61.78-43.51,99.22-47.23,2.12-.21,3.36-1.39,3.72-3.55,7.35-43.74,32.34-82.8,69.52-106.63,21.36-13.69,44.59-21.89,69.69-24.59,51.54-5.56,104.97,17.79,137,58.27,.22,.27,.5,.48,.83,.59,2,.67,4.1,.59,6.29-.24,19.64-7.39,38.75-10.95,57.34-10.66,26.05,.41,50.76,7.07,74.12,19.98,24.92,13.77,44.51,32.91,58.74,57.41,1.98,3.41,3.99,7.03,6.01,10.86,.62,1.17,1.53,1.62,2.83,1.87,27.38,5.31,50.71,16.3,70,32.97,21.34,18.45,35.96,41.4,43.88,68.86Zm-501.84,3.19c18.44,4.75,36.04-9.62,35.29-28.56-.01-.41-.23-.78-.57-1l-5.68-3.64c-.39-.25-.7-.17-.92,.24-4.63,8.49-15.14,10.85-22.6,4.92-6.37-5.06-7.43-14.56-2.28-20.97,.25-.32,.19-.78-.12-1.03-.02-.01-.03-.02-.05-.03l-4.91-3.2c-.68-.44-1.55-.49-2.28-.14-9.08,4.41-14.57,11.25-16.45,20.5-2.98,14.68,6.06,29.18,20.58,32.91Zm266.2-38.62c-1.16,15.18-21.2,18.97-28.16,5.71-.19-.36-.63-.49-.99-.3-.02,.01-.04,.02-.06,.03l-5.4,3.54c-.41,.27-.66,.73-.68,1.22-.61,17.12,13.51,30.37,30.35,29.24,7.84-.53,15.58-4.74,20.28-11.06,11.11-14.92,5.54-36.29-12.04-43.41-.32-.13-.62-.11-.91,.08l-5.66,3.56c-.24,.15-.31,.46-.16,.7,.01,.02,.02,.03,.03,.05,2.56,3.22,3.69,6.77,3.4,10.64Zm-166.21,98.6c.08-8.72,3.1-17.07,9.02-23.31,20.91-22.01,56.48-7.21,57.1,22.45,.11,5.61,7.87,5.47,8.16,.86,.43-6.97-1.18-13.78-4.8-20.43-10.25-18.77-33.79-27.57-53.79-17.92-12.71,6.13-20.49,16.26-23.36,30.41-.49,2.38-.66,4.8-.53,7.26,.14,2.51,1.46,3.87,3.96,4.08,1.02,.09,2-.21,2.96-.9,.8-.58,1.28-1.51,1.29-2.5Z"/>
    <path class="cls-10" d="M159.74,349.66c26.1,12.12,52.54,23.22,79.32,33.29,82.07,30.87,168.94,51.33,256.21,57.23,33.46,2.27,67.5,2.26,102.12-.03,72.36-4.79,141.78-20.36,208.27-46.72,29.84-11.83,59.43-26.51,88.77-44.06,5.59,19.01,7.15,37.83,4.69,56.45-3.36,25.45-12.63,48.43-27.82,68.95-.21,.28-.55,.45-.91,.45H170.93c-.17,0-.32-.09-.4-.24-8.4-15.49-14.11-31.97-17.13-49.42-4.43-25.62-2.32-50.92,6.34-75.9Z"/>
  </g>
  <path class="cls-11" d="M500.16,389.23c-5.93,6.24-8.95,14.59-9.03,23.31,0,.99-.49,1.92-1.29,2.5-.95,.69-1.94,.99-2.96,.9-2.5-.21-3.82-1.57-3.96-4.08-.13-2.46,.04-4.88,.53-7.26,2.87-14.15,10.67-24.28,23.39-30.41,20.02-9.65,43.59-.85,53.85,17.92,3.63,6.65,5.24,13.46,4.81,20.43-.29,4.61-8.06,4.75-8.17-.86-.62-29.66-36.24-44.46-57.17-22.45Z"/>
  <path class="cls-5" d="M396.21,542.66c-.6,2.21-.62,6.74,2.86,6.77,6.33,.05,13.03,.05,20.1,0,.49,0,.61,.21,.36,.62-8.63,14.44-17.23,29.07-25.8,43.88-.75,1.3-1.49,2.72-2.22,4.25-.02,.04-.06,.06-.11,.04-.04-.02-.06-.06-.04-.1h0c2.72-10.13,5.42-20.6,8.1-31.41,.84-3.36,.75-7.8-4.06-7.78-6.29,.01-12.44,.04-18.45,.09-.41,0-.56-.2-.45-.6l10.19-35.73c.09-.33,.31-.5,.66-.5h14.01c.45,0,.61,.21,.48,.64-2.04,6.87-3.92,13.48-5.63,19.83Z"/>
  <path class="cls-5" d="M566.58,549.51c6.96-.07,13.63-.07,20.02,0,.07,0,.13,.06,.12,.14,0,.02,0,.04-.01,.05l-28.23,47.98c-.07,.11-.08,.11-.04-.02,3.05-11.05,5.82-21.87,8.32-32.45,.48-2.03,.2-3.67-.83-4.93-.77-.93-2.12-1.39-4.05-1.39-6.38,.01-12.41,.06-18.09,.15-.28,0-.38-.13-.3-.4l10.1-35.49c.16-.57,.69-.96,1.28-.96h13.51c.47,0,.63,.22,.49,.66-1.83,5.95-3.64,12.23-5.43,18.82-.67,2.47-1.02,7.89,3.14,7.84Z"/>
  <path class="cls-5" d="M475.07,606.7c.72-2.85,.03-6.63-3.72-6.6-8.61,.09-17.39,.11-26.36,.07-.13,0-.23-.11-.23-.24,0-.02,0-.04,0-.06l13.68-47.95c.13-.44,.42-.66,.87-.66l20.26-.02c.47,0,.64,.23,.51,.68-2.9,9.87-5.49,18.98-7.78,27.33-.63,2.32-.6,6.9,3.04,6.91,9.07,.03,18.28,.03,27.62-.02,.13,0,.23,.1,.23,.23,0,.04-.01,.09-.03,.12l-40.66,69.27c-.05,.09-.07,.09-.04-.01,4.71-17.99,8.91-34.34,12.6-49.05Z"/>
  <path class="cls-5" d="M641.7,608.18c.61-2.41,.97-8.08-3-8.06-9.27,.07-18.17,.08-26.69,.04-.12,0-.22-.1-.22-.22,0-.02,0-.03,0-.05l13.56-47.48c.22-.75,.72-1.13,1.51-1.13l19.99-.02c.18,0,.33,.15,.33,.33,0,.03,0,.06-.01,.09-2.65,9.24-5.27,18.39-7.85,27.45-.32,1.11-.46,2.27-.41,3.47,.07,2.09,1.91,3.61,3.88,3.6,8.71-.01,17.69-.03,26.96-.04,.43,0,.53,.18,.32,.55l-40.61,69.1s-.04,.02-.06,0c0,0-.01-.02-.01-.03,4.24-15.8,8.34-31.67,12.3-47.6Z"/>
  <path class="cls-5" d="M873.89,625.97l10.15-35.51c.16-.57,.69-.96,1.28-.96l13.53,.04c.24,0,.43,.2,.42,.44,0,.04,0,.07-.01,.1-1.67,5.91-3.43,12-5.26,18.29-.86,2.99-1.23,8.42,3.45,8.43,6.55,.02,12.78,.04,18.67,.05,.69,0,.86,.3,.51,.91l-27.68,47.29c-.07,.11-.08,.1-.05-.02,2.67-10.05,5.27-20.08,7.82-30.08,.87-3.39,1.61-8.67-3.6-8.7-6.41-.03-12.74,0-18.97,.07-.24,0-.33-.12-.26-.35Z"/>
  <path class="cls-5" d="M166.07,628.58h-19.74c-.54-.01-.74-.27-.59-.78l10.09-35.32c.13-.44,.42-.66,.88-.66h13.85c.36,0,.49,.16,.39,.51-1.91,6.58-3.68,12.82-5.32,18.73-.64,2.3-1.17,8.06,2.86,8.1,6.73,.07,13.44,.05,20.12-.08,.1,0,.19,.08,.2,.18,0,.04,0,.08-.03,.11l-28.07,47.85c-.11,.19-.13,.18-.08-.03,2.91-10.84,5.7-21.67,8.39-32.48,.59-2.38,.07-4.26-1.57-5.63-.4-.33-.86-.5-1.38-.5Z"/>
  <path class="cls-4" d="M582.51,816.92c7.08,28.56,3.45,72.03-26.95,87-17.67,8.71-40.02,9.23-57.85,2.17-15.91-6.29-25.67-18.34-30.47-34.14-4.83-15.91-5.68-32.44-2.53-49.61,1.89-10.32,5.49-19.28,10.79-26.87,9.68-13.89,26.35-20.48,43.03-21.55,20.53-1.32,43.27,4.46,55.09,22.55,4.11,6.27,7.07,13.09,8.89,20.45Zm-38.46,40.17c.88-11.65,.73-23.18-.46-34.57-.34-3.22-.99-6.36-1.96-9.42-1.78-5.6-6.84-11.64-12.75-12.1-3.45-.26-8.66-.67-11.66,.57-8.71,3.6-11.51,12.49-12.33,21.22-1.11,11.79-1.2,24.03-.25,36.72,.63,8.49,2.33,16.63,9.62,22.08,3.84,2.87,10,2.62,14.59,2.11,2.07-.23,4.04-1.03,5.9-2.4,3.98-2.93,6.54-7.16,7.68-12.71,.8-3.85,1.34-7.69,1.62-11.5Z"/>
  <path class="cls-4" d="M433.44,855.8h14.13c.34-.01,.51,.16,.51,.5v25.59c-.01,.39-.21,.58-.6,.58l-14.08-.06c-1.83-.01-3.32,1.46-3.33,3.29,0,0,0,.01,0,.02l-.05,23.59c0,.25-.21,.46-.46,.46h-35.38c-.4-.01-.6-.21-.6-.61v-23.29c-.02-1.88-1.55-3.41-3.44-3.41h-62.43c-.42-.01-.63-.22-.63-.64l.09-23.78c0-1.2,.28-2.38,.81-3.45l39.29-79.36c.05-.12,.17-.19,.3-.19h35.45c.45-.01,.57,.19,.38,.59-11.29,23.62-22.63,47.36-34.02,71.22-1.52,3.19-2.51,9.08,2.95,8.99,6.01-.1,11.89-.1,17.62,.01,1.95,.04,3.57-1.51,3.61-3.47,0-.02,0-.05,0-.07l.03-22.98c0-.38,.19-.57,.57-.57l35.56-.02c.17,0,.31,.14,.31,.31h0l.02,23.37c0,1.87,1.52,3.39,3.39,3.38Z"/>
  <path class="cls-4" d="M708.11,853.61c.63,1.21,1.92,2.24,3.35,2.22,4.79-.05,9.49-.05,14.08-.02,.14,0,.26,.12,.26,.27h0v25.74c.01,.45-.21,.67-.65,.66-4.09-.07-8.52-.07-13.29,0-4.08,.06-4.19,3.6-4.12,6.73,.15,6.96,.18,13.64,.1,20.05,0,.34-.18,.51-.51,.51h-35.55c-.27-.01-.49-.23-.49-.51h0v-22.41c0-2.95-1.47-4.42-4.42-4.42l-61.98,.04c-.11,0-.2-.09-.2-.2h0v-24.7c0-.53,.12-1.04,.35-1.5l39.82-80.57c.15-.31,.4-.47,.75-.47h35.19c.43,0,.55,.19,.36,.58-11.58,24.19-23.08,48.29-34.51,72.32-1.29,2.72-1.62,7.98,2.79,7.93,5.6-.07,11.51-.07,17.72,.02,2.24,.03,4.09-1.76,4.12-4,0-.02,0-.03,0-.05v-22.57c.02-.37,.21-.56,.58-.56l35.34,.05c.45,0,.67,.23,.67,.68l-.03,23.07c0,.39,.09,.77,.27,1.11Z"/>
  <path class="cls-4" d="M404.48,964.33l-.93,13.19c-.02,.21,.14,.39,.35,.41,0,0,0,0,0,0l23.89,1.75c.21,.02,.36,.19,.35,.4l-.24,6.68c-.01,.21-.19,.37-.4,.36h0l-24.18-1.72c-.21-.01-.38,.14-.4,.35l-.8,13.43c-.02,.21,.14,.39,.35,.41,0,0,0,0,.01,0l27.8,1.94c.21,.02,.37,.2,.35,.41,0,0,0,0,0,0l-.58,6.82c-.02,.2-.2,.35-.4,.34l-36.18-2.61c-.21-.02-.37-.2-.35-.41,0,0,0,0,0,0l3.54-49.86c.02-.21,.2-.37,.41-.35,0,0,0,0,0,0l35.18,2.5c.21,.02,.36,.19,.35,.4l-.27,6.8c-.01,.21-.19,.37-.4,.36,0,0,0,0-.01,0l-27.03-1.95c-.21-.02-.39,.14-.41,.35,0,0,0,0,0,0Z"/>
  <path class="cls-4" d="M449.87,995.94c0,4.46-.31,9.17-.96,14.14-.03,.19-.13,.27-.32,.26l-7.72-.35c-.15,0-.21-.08-.2-.22l3.45-49.21c.07-.93,.57-1.36,1.5-1.28,6.81,.55,13.37,1.06,19.7,1.51,10.45,.74,18.92,6.38,18.54,17.79-.27,8.23-3.98,13.67-11.12,16.3-.31,.12-.47,.46-.36,.76,.01,.03,.03,.07,.05,.1,3.21,5.39,6.5,11.11,9.85,17.16,.01,.03,0,.05-.03,.07,0,0,0,0-.01,0-5.45-.38-8.61-.74-9.48-1.09-.07-.03-.12-.07-.15-.13l-7.28-14.34c-.4-.8-1.2-1.32-2.09-1.37l-12.68-.76c-.47-.03-.7,.19-.69,.66Zm2.18-28.2l-1.43,19.51c-.02,.22,.15,.41,.37,.43,0,0,0,0,0,0l13.58,1c5.84,.43,10.87-3.29,11.24-8.31,0,0,0,0,0,0l.16-2.14c.37-5.02-4.07-9.43-9.91-9.86,0,0,0,0,0,0l-13.58-.99c-.22-.02-.41,.14-.43,.36Z"/>
  <path class="cls-4" d="M502.67,999.52l-1.11,14.34c0,.07-.03,.1-.1,.09l-8.11-.3c-.12,0-.17-.07-.16-.18l3.54-49.76c.02-.33,.3-.58,.63-.57,6.8,.18,13.45,.89,20.22,1.29,12.05,.71,20.39,7.71,18.58,20.59-.8,5.75-4.04,10.6-9.3,12.86-.53,.23-1.04,.47-1.55,.73-.38,.19-.46,.48-.25,.85l9.73,16.95c.04,.06,.02,.14-.05,.18-.02,.01-.05,.02-.08,.02l-9.06-.83c-.16-.02-.3-.12-.38-.26l-7.4-14.63c-.36-.7-1.06-1.16-1.85-1.21l-12.62-.75c-.42-.03-.65,.17-.68,.59Zm1.96-28.32l-1.42,19.89c-.01,.12,.07,.22,.19,.23,0,0,0,0,0,0l13.7,.98c5.9,.42,10.99-3.51,11.37-8.78l.09-1.22c.38-5.27-4.1-9.89-10.01-10.31l-13.69-.98c-.12-.01-.22,.07-.23,.19,0,0,0,0,0,0Z"/>
  <path class="cls-4" d="M596.76,995.72c-1.16,14.16-14.12,24.65-28.95,23.43-14.82-1.22-25.9-13.68-24.73-27.84,1.16-14.16,14.12-24.65,28.95-23.43,14.82,1.22,25.9,13.68,24.73,27.84Zm-8.57-.8c.77-9.98-6.8-18.71-16.9-19.48s-18.91,6.69-19.68,16.67,6.8,18.71,16.89,19.48,18.91-6.69,19.68-16.67h0Z"/>
  <path class="cls-4" d="M613.84,1007.55l-1.02,13.95c-.03,.44-.27,.64-.7,.61l-6.85-.49c-.45-.03-.79-.42-.76-.87,0,0,0,0,0,0l3.48-49.58c.01-.15,.13-.26,.28-.25,7.53,.42,15.07,.98,22.61,1.68,9.92,.93,17.2,7.3,16.77,17.84-.32,7.95-4.02,13.32-11.11,16.11-.29,.11-.43,.44-.32,.73,.01,.03,.02,.05,.04,.07l9.8,17.01c.05,.1,.02,.15-.09,.14l-9.16-.78c-.17-.02-.29-.1-.36-.25l-7.37-14.56c-.36-.72-1.09-1.19-1.9-1.24l-12.6-.76c-.46-.03-.71,.19-.74,.64Zm1.89-27.8l-1.25,18.76c-.03,.42,.29,.78,.71,.81,0,0,0,0,0,0l13.49,.9c5.7,.38,10.59-3.4,10.92-8.43,0,0,0,0,0,0l.14-2.05c.34-5.03-4.01-9.42-9.71-9.8,0,0,0,0,0,0l-13.49-.89c-.42-.03-.78,.28-.81,.7Z"/>
</svg>