<?xml version="1.0" encoding="UTF-8"?>
<svg id="Capa_1" data-name="Capa 1" xmlns="http://www.w3.org/2000/svg" viewBox="0 0 1250 1250">
  <defs>
    <style>
      .cls-1 {
        fill: #fff;
      }

      .cls-2 {
        fill: #78d5fb;
      }

      .cls-3 {
        fill: #b7c1d0;
      }
    </style>
  </defs>
  <path class="cls-3" d="M308.91,365.2c37.97-122.57,123.44-181.26,256.4-176.06,3.17,.12,6.24-1.19,8.37-3.56,12.31-13.76,22.32-28.48,36.37-40.98,78.7-70.33,195.98-82.93,283.53-25.21,66.38,43.74,102.72,106.89,109.01,189.44,.37,5.2,2.96,10,7.12,13.18,18.09,13.95,39.35,25.88,53.88,43.49,116.8,141.72,21.55,339.33-162.02,340-167.92,.64-332.08,.61-492.49-.1-59.91-.26-107.85-22.19-143.83-65.81-56.96-68.98-53.4-174.52,10.58-236.19,12.7-12.22,27.61-20.4,33.1-38.2Zm186.45,78.51c-.91,1.11-2.54,1.27-3.66,.37-.07-.05-.13-.11-.19-.17-58.98-57.34-151.53-48.59-191.26,25.01-45.03,83.22,19.82,172.98,111.89,172.79,160.8-.38,320.57-.35,479.31,.1,55.42,.19,102.46-13.47,135.17-60.23,54.07-77.06,27.32-177.12-58.78-216.57-31.62-14.5-67.7-15.23-108.24-2.21-17.25,5.58-18.44,3.21-3.56-7.12,19.82-13.66,46.15-23.09,78.99-28.29,4.49-.71,6.67-3.3,6.54-7.79-1.35-67.47-28.61-117.6-81.78-150.37-80.62-49.64-186.55-26.65-237.54,53.11-2.32,3.7-1.39,8.55,2.12,11.06,46.66,34.54,76.49,85.91,81.78,143.64,.13,1.6-.61,2.6-2.21,2.98l-2.5,.48c-.38,.06-.64-.1-.77-.48-16.68-64.85-55.87-106.89-117.57-126.13-87.45-27.23-175.97,23.96-208.77,109.39-.97,2.47,.29,5.27,2.81,6.25,.36,.14,.74,.24,1.13,.29,56.28,6.73,80.82,34.06,119.01,70.71,.26,.26,.26,.55,0,.87l-1.92,2.31Z"/>
  <path class="cls-1" d="M495.36,443.7l1.92-2.31c.26-.32,.26-.61,0-.87-38.2-36.66-62.73-63.98-119.01-70.71-2.68-.37-4.58-2.8-4.23-5.43,.05-.38,.15-.75,.29-1.11,32.81-85.43,121.32-136.62,208.77-109.39,61.7,19.24,100.89,61.29,117.57,126.13,.13,.38,.38,.55,.77,.48l2.5-.48c1.6-.38,2.34-1.38,2.21-2.98-5.29-57.73-35.12-109.1-81.78-143.64-3.51-2.52-4.44-7.36-2.12-11.06,50.99-79.76,156.92-102.75,237.54-53.11,53.17,32.78,80.43,82.9,81.78,150.37,.13,4.49-2.05,7.09-6.54,7.79-32.84,5.2-59.17,14.62-78.99,28.29-14.88,10.33-13.69,12.7,3.56,7.12,40.54-13.02,76.61-12.28,108.24,2.21,86.11,39.45,112.85,139.5,58.78,216.57-32.71,46.76-79.76,60.42-135.17,60.23-158.74-.45-318.52-.48-479.31-.1-92.07,.19-156.92-89.57-111.89-172.79,39.73-73.6,132.29-82.35,191.26-25.01,1.01,1.01,2.66,1.01,3.67,0,.06-.06,.12-.13,.17-.19Z"/>
  <path class="cls-2" d="M982.08,851.15c18.09,4.43,38.03,6.25,59.84,5.48,.38,0,.61,.19,.67,.58l.29,3.08c.19,2.57-.99,4.01-3.56,4.33l-52.91,5.96c-4.45,.46-7.65,4.46-7.16,8.94,.21,1.9,1.07,3.67,2.44,5.01,5.2,5,9.49,10.36,12.89,16.07,5.39,8.98,3.34,11.22-6.16,6.73-6.41-3.08-12.38-6.93-17.89-11.55-3.56-3.03-8.9-2.6-11.93,.96-1.26,1.48-1.97,3.35-2.02,5.29-.32,12.57-1.92,24.66-4.81,36.27-4.49,18.15-7.76,17.93-9.81-.67-1.22-11.22-1.92-22.54-2.12-33.96-.14-5.52-4.7-9.9-10.18-9.8-2.63,.05-5.13,1.15-6.95,3.07-6.09,6.41-12.99,10.29-20.68,11.64-8.53,1.41-9.88-1.03-4.04-7.31l16.26-17.7c2.94-3.14,2.79-8.07-.35-11.02-1.25-1.17-2.85-1.9-4.55-2.07l-49.45-5.48c-2.76-.26-3.85-1.76-3.27-4.52,.19-.71,.71-1.35,1.54-1.92,.45-.32,.93-.51,1.44-.58,17.57-1.8,34.32-4.39,50.22-7.79,3.43-.74,5.6-4.12,4.86-7.55-.17-.77-.48-1.51-.91-2.17-3.46-5.07-6.96-10.04-10.49-14.91-11.1-15.33-8.24-18.73,8.56-10.2,4.49,2.24,9.49,6.22,15.01,11.93,2.4,2.48,6.36,2.54,8.84,.14,.99-.96,1.64-2.23,1.84-3.6l8.18-56.96c.13-.64,.48-1.09,1.06-1.35,1.22-.51,2.15-.48,2.79,.1,.71,.71,1.09,1.54,1.15,2.5,.83,18.22,3.56,36.69,8.18,55.42,.85,3.62,4.51,5.85,8.17,4.97,.83-.2,1.61-.55,2.31-1.03,7.18-4.94,14.21-11.03,21.07-18.28,.32-.32,.64-.35,.96-.1l2.5,1.83c2.44,1.86,2.85,4.1,1.25,6.73l-16.07,26.27c-2.25,3.72-1.25,6.13,2.98,7.22Z"/>
  <path class="cls-2" d="M355.28,824.31c.19-14.17,1.38-27.52,3.56-40.02,4.17-24.57,8.15-24.53,11.93,.1,1.8,12.19,3.34,24.34,4.62,36.46,.47,4.55,4.53,7.85,9.08,7.38,1.14-.12,2.24-.47,3.24-1.03,7.31-4.14,14.82-13.66,22.71-15.3,.83-.13,1.67-.03,2.5,.29,3.21,1.48,3.82,3.69,1.83,6.64l-16.93,25.3c-2.89,4.36-1.73,6.8,3.46,7.31,18.6,1.86,35.66,4.81,51.18,8.85,7.76,1.99,7.66,3.69-.29,5.1-15.46,2.63-31.78,4.39-48.97,5.29-3.45,.18-6.1,3.12-5.92,6.57,.07,1.33,.56,2.6,1.4,3.63l15.68,19.24c6.29,7.76,4.62,10.33-5,7.7-6.8-1.92-12.57-5.64-17.32-11.16-3.67-4.2-10.06-4.62-14.25-.95-2.16,1.89-3.42,4.62-3.45,7.49,0,16.93-1.83,32.33-5.48,46.18-1.73,6.41-3.46,6.41-5.2,0-3.85-13.98-6-28.99-6.45-45.03-.19-5.9-5.12-10.52-11.02-10.33-2.47,.08-4.83,1.01-6.69,2.63-4.17,3.66-8.43,7.25-12.8,10.78-2.37,1.99-5.1,2.53-8.18,1.64-2.54-.77-4-3.42-3.26-5.92,.16-.54,.42-1.04,.75-1.49l14.91-19.82c2.24-3.04,1.59-7.31-1.45-9.55-1.06-.78-2.33-1.24-3.65-1.32-15.14-.77-29.38-2.63-42.72-5.58-9.81-2.18-9.78-4.3,.1-6.35,13.47-2.76,27.93-5.29,43.39-7.6,3.99-.62,6.72-4.36,6.1-8.35-.17-1.08-.57-2.1-1.19-3l-15.1-22.03c-3.4-4.87-2.12-7.34,3.85-7.41,3.34,0,6.16,1.25,8.47,3.75,5.96,6.41,13.08,10.94,21.36,13.57,3.4,1.09,5.13-.13,5.2-3.66Z"/>
  <path class="cls-2" d="M618.22,851.73c4.25-.65,7.2-4.58,6.58-8.79-.19-1.28-.7-2.49-1.48-3.52l-16.64-21.94c-1.99-2.63-1.67-4.91,.96-6.83,1.09-.83,2.31-1.19,3.66-1.06,1.67,.19,3.11,.87,4.33,2.02,6.35,5.9,13.53,11.32,21.55,16.26,2.68,1.63,6.17,.77,7.8-1.91,.4-.65,.66-1.38,.77-2.13,2.44-15.84,5.1-31.04,7.99-45.6,2.95-15.14,5.23-15.04,6.83,.29l4.43,42.91c.54,5.02,5.05,8.64,10.07,8.1,2.55-.28,4.86-1.61,6.38-3.67,4.81-6.67,10.74-10.55,17.8-11.64,9.75-1.54,11.29,1.31,4.62,8.56l-15.1,16.45c-2.79,3.06-2.58,7.81,.48,10.6,1.15,1.05,2.59,1.71,4.14,1.91l56.67,6.83c1.28,.13,2.15,.77,2.6,1.92,.45,1.09,.32,1.92-.38,2.5-.64,.51-1.38,.83-2.21,.96-18.54,2.69-37.14,4.87-55.8,6.54-4.24,.36-7.38,4.08-7.02,8.32,.14,1.71,.85,3.31,2.02,4.57l17.32,18.76c8.15,8.92,6.51,11.38-4.91,7.41-7.12-2.5-13.44-6.7-18.95-12.6-3.96-4.3-10.65-4.58-14.95-.62-1.82,1.68-3,3.94-3.33,6.4-2.05,14.75-3.08,30.24-3.08,46.47,0,1.99-.93,3.27-2.79,3.85-2.08,.65-4.29-.5-4.95-2.58-.07-.23-.12-.46-.15-.69l-6.25-50.22c-.51-4.27-4.38-7.33-8.66-6.82-1.32,.16-2.58,.65-3.66,1.43l-21.84,15.87c-.67,.54-1.56,.76-2.41,.58-2.31-.51-3.53-1.57-3.66-3.17-.13-.96,.06-1.86,.58-2.69,4.43-6.99,9.68-13.41,15.78-19.24,3.27-3.19,3.34-8.43,.15-11.7-1.32-1.36-3.08-2.22-4.96-2.44l-54.26-6.45c-1.16-.13-1.73-.77-1.73-1.92l.1-2.79c.06-.26,.19-.38,.39-.38l55.22-8.08Z"/>
  <path class="cls-2" d="M241.37,1044.14c7.5-3.66,15.27-9.43,23.28-17.32,.32-.26,.64-.29,.96-.1l3.56,2.6c1.48,1.09,1.7,2.41,.67,3.94l-15.49,22.8c-2.35,3.42-1.48,8.09,1.93,10.44,1.11,.76,2.4,1.21,3.74,1.3,17.7,1.22,35.34,2.5,52.91,3.85,1.6,.13,2.57,.99,2.89,2.6,.06,.32,.06,.64,0,.96-.38,1.48-1.35,2.28-2.89,2.41-16.8,1.35-33.64,3.62-50.51,6.83-5.64,1.06-9.36,6.49-8.3,12.13,.38,2.03,1.36,3.91,2.82,5.38,3.72,3.85,7.12,7.89,10.2,12.12,10.84,14.88,8.53,17.38-6.93,7.5-5.39-3.46-10.68-7.15-15.87-11.06-3.85-2.93-9.34-2.18-12.27,1.67-1.09,1.43-1.71,3.17-1.78,4.97-.45,13.28-1.44,25.75-2.98,37.43-2.12,16.36-5.13,16.55-9.04,.58-2.89-11.87-4.65-24.34-5.29-37.43-.26-4.29-3.91-7.59-8.15-7.36-1.19,.06-2.36,.41-3.39,1.01l-17.13,9.52c-10.58,5.9-12.6,3.72-6.06-6.54,2.82-4.43,6.09-8.56,9.81-12.41,3.97-4.07,3.88-10.59-.19-14.56-1.48-1.44-3.35-2.4-5.39-2.76-14.62-2.63-29.57-5.16-44.83-7.6-1.35-.26-2.15-1.06-2.41-2.41-.06-.32-.03-.61,.1-.87,.26-1.03,.9-1.57,1.92-1.64,14.56-1.22,30.05-2.66,46.47-4.33,4.44-.44,7.69-4.39,7.25-8.83-.2-2.01-1.14-3.86-2.63-5.21-6.73-5.96-10.33-12.57-10.78-19.82-.51-8.92,2.28-10.1,8.37-3.56l10.29,11.16c3.51,3.77,9.42,3.99,13.19,.48,1.55-1.45,2.57-3.38,2.88-5.48l6.83-48.2c.19-1.15,.87-1.67,2.02-1.54l3.27,.48c.19,0,.32,.13,.38,.38l5.87,50.7c.47,4.07,4.19,6.96,8.3,6.47,.83-.1,1.63-.33,2.38-.69Z"/>
  <path class="cls-2" d="M842.48,1067.52l35.98,2.69c19.63,1.48,20.11,4.49,1.44,9.04-5.64,1.35-16.71,2.76-33.19,4.23-6.08,.57-10.55,5.97-9.97,12.06,.18,1.93,.87,3.78,1.99,5.36,4.43,6.35,8.82,12.8,13.18,19.34,.96,1.41,1.06,2.76,.29,4.04-.19,.32-.45,.55-.77,.67-1.48,.64-2.89,.48-4.23-.48-6.29-4.68-12.41-9.2-18.38-13.57-4.5-3.3-10.82-2.32-14.12,2.18-.98,1.34-1.62,2.91-1.85,4.55l-5.96,44.35c-.32,2.37-1.7,3.72-4.14,4.04-2.5,.26-3.72-.67-3.66-2.79,.13-16.1-1.12-31.49-3.75-46.18-.91-4.8-5.54-7.96-10.34-7.05-1.51,.29-2.92,.96-4.09,1.95-6.03,5.2-12.83,9.2-20.4,12.03-1.55,.54-3.26-.25-3.81-1.75-.21-.58-.23-1.22-.04-1.81,2.18-7.38,6.19-14.01,12.03-19.92,3.28-3.26,3.3-8.56,.04-11.84-1.17-1.17-2.65-1.98-4.28-2.31l-47.53-9.91c-.87-.18-1.56-.86-1.73-1.73-.19-1.28,.16-2.31,1.06-3.08,.71-.64,1.51-.96,2.41-.96,15.2-.51,30.37-1.76,45.51-3.75,4.11-.57,6.97-4.36,6.4-8.46-.09-.66-.27-1.31-.54-1.93-2.44-5.77-5.61-11.13-9.52-16.07-8.08-10.39-5.93-13.37,6.45-8.95,1.03,.38,4.78,3.69,11.26,9.91,3.84,3.59,9.87,3.39,13.46-.45,1.4-1.49,2.27-3.39,2.51-5.42l5.1-46.18c.13-1.54,.87-2.66,2.21-3.37,.96-.51,1.76-.51,2.41,0,.9,.64,1.48,1.51,1.73,2.6,3.78,15.46,6.35,30.79,7.7,45.99,.5,5.39,5.24,9.39,10.6,8.93,2.44-.21,4.7-1.34,6.33-3.15,3.98-4.36,8.59-8.02,13.85-10.97,4.17-2.37,6.8-1.22,7.89,3.46,.19,.83,.13,1.67-.19,2.5-2.41,7.31-11.64,15.39-14.82,23.38-1.33,3.24,.21,6.95,3.45,8.29,.65,.27,1.33,.42,2.03,.47Z"/>
  <path class="cls-2" d="M552.32,1085.51c-4.76,.45-8.27,4.64-7.85,9.36,.15,1.64,.77,3.2,1.79,4.5l11.16,14.43c10.97,14.17,8.66,16.8-6.93,7.89-5.39-3.14-10.45-6.77-15.2-10.87-3.98-3.46-7.6-3.18-10.87,.87-3.46,4.36-5.1,9.62-4.91,15.78,.38,13.21-.99,24.73-4.14,34.54-2.24,6.93-3.82,6.77-4.71-.48-1.86-14.69-3.14-28.86-3.85-42.52-.35-5.89-5.41-10.38-11.29-10.03-2.16,.13-4.22,.91-5.93,2.23-6.67,5.2-13.66,9.49-20.97,12.89-4.55,2.12-5.77,.9-3.66-3.66,3.14-6.54,7.82-12.44,14.05-17.7,4.11-3.45,4.67-9.56,1.26-13.63-.46-.55-.98-1.04-1.55-1.47-2.5-1.92-5.39-3.17-8.66-3.75-14.75-2.89-29.25-4.81-43.49-5.77-2.18-.13-3.3-1.28-3.37-3.46,0-.32,.06-.61,.19-.87,.58-1.03,1.44-1.57,2.6-1.64,16.16-1.35,32.81-2.92,49.93-4.71,4.01-.44,6.91-4.06,6.46-8.07-.15-1.38-.69-2.68-1.56-3.76l-10.39-13.18c-12.06-15.2-9.2-18.34,8.56-9.43,.45,.19,3.56,2.82,9.33,7.89,4.16,3.56,10.41,3.07,13.97-1.08,1.23-1.44,2.03-3.2,2.29-5.07,1.99-15.46,4.01-30.05,6.06-43.78,.26-1.41,.93-2.53,2.02-3.37,.26-.19,.58-.29,.96-.29,1.28-.13,1.96,.48,2.02,1.83,1.15,18.09,3.98,35.02,8.47,50.8,1.22,4.1,3.85,5.36,7.89,3.75,6.99-2.76,13.12-7.18,18.38-13.28,1.78-2.12,4.72-2.82,7.22-1.73l3.46,1.44c1.56,.67,2.29,2.47,1.63,4.04-.12,.28-.28,.54-.47,.77l-15.3,19.15c-2.82,3.46-2.3,8.55,1.16,11.37,1.36,1.11,3.05,1.75,4.8,1.81,17.13,.71,33.51,2.31,49.16,4.81,6.03,.96,6.13,2.28,.29,3.94-16.1,4.68-32.78,7.86-50.03,9.52Z"/>
</svg>