<?xml version="1.0" encoding="UTF-8"?>
<svg id="Capa_1" data-name="Capa 1" xmlns="http://www.w3.org/2000/svg" viewBox="0 0 1250 1250">
  <defs>
    <style>
      .cls-1 {
        fill: #7a8089;
      }

      .cls-2 {
        fill: #aaa;
      }
    </style>
  </defs>
  <path class="cls-2" d="M716.38,278.15c-110.37-34.98-250.07,42.44-251.31,95.54-.33,14.33,9.02,29.23,2.08,35.31-9.46,8.28-33.24-13.73-62.31-22.85-55.38-17.37-120.64,15-155.77,47.77-43.81,40.88-21.66,64.59-70.62,130.85-47.55,64.36-84.64,63.91-93.46,108-8.18,40.91,14.33,88.42,45.69,116.31,63.19,56.18,137.58,10.72,201.46,70.62,29.62,27.77,16.86,40.57,43.62,70.62,26.26,29.49,67.66,49.82,313.62,49.85,48.24,0,118-4.84,257.54-14.54,73.69-5.12,106.2-8.18,139.15-33.23,70.32-53.46,68.69-150.88,68.54-155.77-.39-12.3-2.65-83.26-51.92-126.69-30.31-26.72-51.94-19.67-66.46-45.69-19.91-35.67,12.47-63.74-4.15-108-8.75-23.31-29.06-37.22-68.54-64.38-42.13-28.98-72.45-42.16-99.69-56.08-103.1-52.66-91.8-79.97-147.46-97.62Z"/>
  <path class="cls-2" d="M721.09,286.18c-110.37-34.98-250.07,42.44-251.31,95.54-.33,14.33,9.02,29.23,2.08,35.31-9.46,8.28-33.24-13.73-62.31-22.85-55.38-17.37-120.64,15-155.77,47.77-43.81,40.88-21.66,64.59-70.62,130.85-47.55,64.36-84.64,63.91-93.46,108-8.18,40.91,14.33,88.42,45.69,116.31,63.19,56.18,137.58,10.72,201.46,70.62,29.62,27.77,16.86,40.57,43.62,70.62,26.26,29.49,67.66,49.82,313.62,49.85,48.24,0,118-4.84,257.54-14.54,73.69-5.12,106.2-8.18,139.15-33.23,70.32-53.46,68.69-150.88,68.54-155.77-.39-12.3-2.65-83.26-51.92-126.69-30.31-26.72-51.94-19.67-66.46-45.69-19.91-35.67,12.47-63.74-4.15-108-8.75-23.31-29.06-37.22-68.54-64.38-42.13-28.98-72.45-42.16-99.69-56.08-103.1-52.66-91.8-79.97-147.46-97.62Z"/>
  <path class="cls-1" d="M386.67,619.65l40.92-64.43c9.92-7.16,17.36-15.47,22.32-24.94,20.04-10.48,37.2-27.65,55.8-35.93,40.7-18.09,83.53-26.04,128.51-23.84,13.19,.59,19.11-9.64,27.14-17.5,13.41-13.02,38.67-49.71,110.25-78.29,71.87-18.26,141.87-15.89,205.45,28.41,65.16,45.37,100.3,110.48,105.43,195.3,.21,3.34,1.81,6.44,4.4,8.54,13.53,10.82,29.42,19.95,41.6,31.87,112.45,109.83,81.33,297.18-70.17,353.41-21.47,8-50.87,12.09-88.18,12.26-159.06,.68-323,.45-491.81-.68-55.97-.34-111.26-24.18-144.32-68.48-48.98-65.5-54.39-134.68-16.23-207.56,12.17-23.17,35.59-43.03,55.12-60.37,10.99-9.75,15.58-25.67,13.78-47.77Zm389.85,41.01c-12.01-41.65-38.02-76.49-78.04-104.5-28.63-20.07-63.38-28.46-104.25-25.2-71.36,5.75-123.02,53.6-148.63,119.13-1.05,2.55,.2,5.47,2.8,6.53,.38,.15,.77,.26,1.18,.32,47.97,7.33,86.8,31.82,116.51,73.47,1.07,1.47,1.63,3.13,1.69,4.99,.11,4.06-1.24,4.62-4.06,1.69-44.98-46.84-118.03-54.03-167.57-9.55-67.38,60.45-48.28,176.2,39.15,204.94,17.25,5.69,35.03,8.4,53.35,8.12,158.44-2.65,317.98-2.73,478.62-.25,52.33,.76,100.02-8.71,133.08-49.12,98.5-120.65-18.26-291.6-166.73-238.17-1.35,.51-2.48,.2-3.38-.93-.68-.73-.87-1.47-.59-2.2,.51-1.35,1.38-2.37,2.62-3.04,26.43-15.89,54.34-26.18,83.7-30.86,3.31-.54,5.74-3.37,5.75-6.68-.76-182.45-221.85-257.36-324.75-102.56-2.23,3.34-1.45,7.84,1.78,10.23,49.77,36.36,77.02,84.01,81.76,142.97,1.07,13.41-.25,13.64-3.97,.68Z"/>
  <path class="cls-1" d="M363.27,867c-3.44-16.75-7.15-33.52-9.82-50.43-2.83,.03-5.67,.05-8.5,.08,.96,21.33,8.95,41.77,13.51,62.46,.25,1.13-1.48,1.61-1.73,.48-1.35-6.14-3.02-12.21-4.67-18.28-3.17-11.67-6.38-23.4-8-35.41-.41-3.05-.72-6.13-.88-9.23-5.14,.06-10.28,.1-15.41,.16-19.85,.23-39.68,.5-59.5,.8-20.03,.28-39.48-2.41-58.34-8.06-95.6-28.54-116.5-143.47-42.81-203.49,54.18-44.16,134.07-37.02,183.26,9.49,3.08,2.91,4.56,2.35,4.44-1.68-.06-1.85-.68-3.5-1.85-4.95-32.48-41.36-74.96-65.68-127.41-72.95-.44-.06-.87-.17-1.29-.32-2.84-1.05-4.21-3.95-3.06-6.48,28.02-65.06,84.51-112.58,162.55-118.28,44.69-3.25,82.69,5.09,114,25.02,22.72,14.44,41.3,30.71,55.77,48.8,.47-.04,.94-.08,1.42-.12,6.33-.46,12.67-.61,19-.62-14.41-33.94-39.71-62.92-75.91-86.93-3.53-2.37-4.38-6.84-1.94-10.16,86.7-118.43,250.13-101.45,320.96-4.56,16.05-1.62,32.25-1.07,48.35-.6,4.72,.14,9.45,.12,14.16,.48,4.91,.37,9.8,1.06,14.65,1.89-19.19-40.19-49.78-73.57-91.8-100.14-69.53-43.99-146.09-46.34-224.68-28.21-78.28,28.38-105.9,64.81-120.57,77.74-8.78,7.81-15.26,17.97-29.68,17.38-49.19-2.18-96.04,5.71-140.54,23.67-20.34,8.23-36.03,32.01-57.94,42.42-5.42,9.4-75.3,119.74-87.32,129.42-21.36,17.21-46.97,36.94-60.28,59.94-41.73,72.36-35.81,141.06,17.75,206.1,36.15,43.99,96.62,67.66,157.83,68,24.1,.15,48.11,.28,72.03,.39,12.37,.06,24.71,.11,37.03,.17-.89-4.67-1.81-9.33-2.77-13.98Z"/>
  <path class="cls-1" d="M284.02,384.17c-20.34,8.23-43.87,18.52-61.02,35.68-64.66,64.66-72.21,126.48-84.23,136.17"/>
</svg>