<?xml version="1.0" encoding="UTF-8"?>
<svg id="Capa_1" data-name="Capa 1" xmlns="http://www.w3.org/2000/svg" viewBox="0 0 1230.65 1231.09">
  <defs>
    <style>
      .cls-1 {
        fill: #f89b31;
      }

      .cls-2 {
        fill: #ffb32c;
      }
    </style>
  </defs>
  <path class="cls-1" d="M481.04,261.16c.28-52.91,19.48-104.08,55.58-143.18,7.42-8.03,14.78-15.95,22.09-23.74,22.99-24.54,45.1-58.27,34.88-93.64-.17-.62,.01-.76,.56-.43,21.38,13.19,38.5,29.23,51.36,48.14,19.89,29.24,26.27,61.25,19.13,96.02-6.76,32.95-7.07,65.8,6.63,96.52,.13,.31,.03,.44-.3,.41-4.47-.49-8.94-.98-13.42-1.47-60.49-6.63-119.15,.62-175.96,21.75-.37,.14-.55,.01-.55-.38Z"/>
  <path class="cls-1" d="M919.23,390.39c-38.69-51.94-89.17-92.77-148.18-119.69-.31-.14-.36-.34-.13-.59,1.11-1.21,2.27-2.39,3.48-3.52,23.71-22.17,50.5-38.29,80.35-48.37,19.09-6.45,39.8-9.95,62.11-10.51,9.31-.24,19-.57,29.06-1,28.18-1.2,57.53-6.8,78.1-27.1,4.41-4.36,8.02-9.25,10.82-14.67,.16-.32,.28-.31,.37,.04,12.56,50.62,3.34,105.81-37.3,141.11-7.73,6.71-16.19,11.8-24.31,17.71-24.3,17.7-43.63,39.19-53.9,66.53-.05,.14-.21,.21-.35,.15-.05-.02-.09-.05-.12-.09Z"/>
  <path class="cls-1" d="M202.12,249.68c-5.25-21.82-17.03-42.98-36.89-53.58-.58-.31-.55-.55,.08-.71,56.49-13.91,117.55-.11,150.67,50.63,18.54,28.39,42.3,53.12,74.23,64.99,.31,.12,.34,.28,.07,.48-52.52,39.25-92.48,88.79-119.89,148.61-.04,.08-.14,.12-.23,.08-.02,0-.03-.02-.04-.03-34.9-35.54-57.07-81.04-61.49-130.05-1.21-13.43-1.42-29.63-1.82-41.03-.55-15.59-2.12-28.72-4.69-39.39Z"/>
  <circle class="cls-2" cx="615.32" cy="615.5" r="352.23"/>
  <path class="cls-1" d="M969.4,481.17c52.43,.38,103.48,19.08,142.19,54.61,8.2,7.53,16.49,15.22,24.86,23.07,24.96,23.39,57.81,44.79,93.83,34.95,.38-.1,.47,.02,.26,.35-16.06,26.55-39.44,49.66-67.66,62.6-19.28,8.84-39.51,12.31-60.68,10.41-5.29-.48-11.3-1.41-18.03-2.8-31.24-6.46-65.14-6.13-94.25,7.13-.42,.19-.6,.06-.54-.4,9.27-65.2,2.51-128.37-20.27-189.51-.1-.27,0-.41,.29-.41Z"/>
  <path class="cls-1" d="M93.44,671.48c-15.19-14.16-32.23-26.63-51.81-32.96-13.89-4.49-27.64-4.96-41.25-1.4-.39,.11-.48-.01-.27-.36,27.18-44.63,73.33-77.7,127.59-72.99,9.76,.85,19.34,3.19,29.21,4.73,28.68,4.47,57.67,2.8,83.9-9,.35-.15,.5-.04,.45,.34-9.27,65.16-2.53,128.31,20.21,189.46,.14,.36,.02,.54-.37,.54-52.45-.39-103.27-19.17-142-54.57-4.28-3.91-12.83-11.84-25.66-23.79Z"/>
  <path class="cls-1" d="M958.98,1025.55c-18.42-9.7-33.87-24.18-46.35-43.45-17.54-27.05-41.66-50.72-72.37-62.18-.19-.07-.21-.17-.05-.29,52.55-39.25,92.5-88.72,119.86-148.41,.18-.39,.42-.43,.72-.12,34.9,36.03,57.68,81.95,61.35,131.55,1.47,19.84,1.17,39.81,3.12,59.53,2.7,27.36,14.29,59.65,40.31,72.79,.53,.27,.51,.48-.08,.61-36.07,8.45-74.08,7.05-106.51-10.03Z"/>
  <path class="cls-1" d="M199.48,972.3c7.37-19.17,18.96-35.4,34.75-48.69,8-6.73,17.27-12.21,25.62-18.47,22.61-16.97,41.14-38.1,51.06-64.43,.13-.33,.29-.35,.5-.07,39.22,52.46,88.64,92.37,148.27,119.74,.17,.08,.24,.27,.16,.44-.02,.03-.04,.07-.06,.09-38.28,37.91-88.7,60.48-142.71,62.22-11.23,.36-22.57,.78-34.01,1.25-29.42,1.2-61.03,8.27-80.7,31.7-2.41,2.87-4.52,6.11-6.34,9.72-.28,.56-.5,.54-.65-.07-7.64-30.73-7.25-63.9,4.11-93.43Z"/>
  <path class="cls-1" d="M698.79,1107.61c-24.03,27.51-54.46,52.41-62.56,89.67-2.55,11.74-2.25,22.86,.91,33.36,.14,.45,0,.56-.4,.31-26.05-15.74-48.9-38.74-61.89-66.08-11.41-24.03-14.5-50.34-9.12-76.46,6.92-33.59,7.64-67.14-6.43-98.33-.15-.34-.05-.48,.32-.43,65.1,9.27,128.24,2.54,189.43-20.19,.37-.13,.56,0,.56,.39-.06,50.04-18.06,100.24-50.82,137.76Z"/>
</svg>