<?xml version="1.0" encoding="UTF-8" standalone="no"?>
<!DOCTYPE svg PUBLIC "-//W3C//DTD SVG 1.1//EN" "http://www.w3.org/Graphics/SVG/1.1/DTD/svg11.dtd">
<svg xmlns="http://www.w3.org/2000/svg" version="1.1" viewBox="0.00 0.00 1443.00 1453.00">
<path fill="#f89b31" d="
  M 586.98 372.08
  C 587.26 319.17 606.46 268.00 642.56 228.90
  Q 653.69 216.85 664.65 205.16
  C 687.64 180.62 709.75 146.89 699.53 111.52
  Q 699.27 110.59 700.09 111.09
  Q 732.16 130.87 751.45 159.23
  Q 781.29 203.09 770.58 255.25
  C 763.82 288.20 763.51 321.05 777.21 351.77
  Q 777.41 352.23 776.91 352.18
  Q 770.21 351.44 763.49 350.71
  Q 672.75 340.76 587.53 372.46
  Q 586.98 372.67 586.98 372.08
  Z"
/>
<path fill="#f89b31" d="
  M 1025.17 501.31
  C 986.48 449.37 936.00 408.54 876.99 381.62
  Q 876.52 381.41 876.86 381.03
  Q 878.52 379.21 880.34 377.51
  Q 915.91 344.26 960.69 329.14
  Q 989.33 319.47 1022.80 318.63
  Q 1036.77 318.27 1051.86 317.63
  C 1080.04 316.43 1109.39 310.83 1129.96 290.53
  Q 1136.58 283.99 1140.78 275.86
  Q 1141.02 275.38 1141.15 275.90
  C 1153.71 326.52 1144.49 381.71 1103.85 417.01
  C 1096.12 423.72 1087.66 428.81 1079.54 434.72
  C 1055.24 452.42 1035.91 473.91 1025.64 501.25
  A 0.27 0.27 0.0 0 1 1025.17 501.31
  Z"
/>
<path fill="#f89b31" d="
  M 308.06 360.60
  C 302.81 338.78 291.03 317.62 271.17 307.02
  Q 270.30 306.55 271.25 306.31
  C 327.74 292.40 388.80 306.20 421.92 356.94
  C 440.46 385.33 464.22 410.06 496.15 421.93
  Q 496.62 422.11 496.22 422.41
  Q 417.44 481.29 376.33 571.02
  A 0.17 0.17 0.0 0 1 376.06 571.07
  C 341.16 535.53 318.99 490.03 314.57 441.02
  C 313.36 427.59 313.15 411.39 312.75 399.99
  Q 311.92 376.61 308.06 360.60
  Z"
/>
<circle fill="#ffb32c" cx="721.26" cy="726.42" r="352.23"/>
<path fill="#f89b31" d="
  M 1075.34 592.09
  C 1127.77 592.47 1178.82 611.17 1217.53 646.70
  Q 1229.83 657.99 1242.39 669.77
  C 1267.35 693.16 1300.20 714.56 1336.22 704.72
  Q 1336.79 704.57 1336.48 705.07
  C 1320.42 731.62 1297.04 754.73 1268.82 767.67
  Q 1239.90 780.93 1208.14 778.08
  Q 1200.21 777.36 1190.11 775.28
  C 1158.87 768.82 1124.97 769.15 1095.86 782.41
  Q 1095.23 782.70 1095.32 782.01
  Q 1109.22 684.21 1075.05 592.50
  Q 1074.90 592.09 1075.34 592.09
  Z"
/>
<path fill="#f89b31" d="
  M 199.38 782.40
  C 184.19 768.24 167.15 755.77 147.57 749.44
  Q 126.73 742.70 106.32 748.04
  Q 105.74 748.20 106.05 747.68
  C 133.23 703.05 179.38 669.98 233.64 674.69
  C 243.40 675.54 252.98 677.88 262.85 679.42
  C 291.53 683.89 320.52 682.22 346.75 670.42
  Q 347.28 670.19 347.20 670.76
  Q 333.30 768.50 367.41 860.22
  Q 367.62 860.76 367.04 860.76
  C 314.59 860.37 263.77 841.59 225.04 806.19
  Q 218.62 800.32 199.38 782.40
  Z"
/>
<path fill="#f89b31" d="
  M 1064.92 1136.47
  Q 1037.29 1121.92 1018.57 1093.02
  C 1001.03 1065.97 976.91 1042.30 946.20 1030.84
  Q 945.91 1030.73 946.15 1030.55
  Q 1024.97 971.67 1066.01 882.14
  Q 1066.28 881.55 1066.73 882.02
  C 1101.63 918.05 1124.41 963.97 1128.08 1013.57
  C 1129.55 1033.41 1129.25 1053.38 1131.20 1073.10
  C 1133.90 1100.46 1145.49 1132.75 1171.51 1145.89
  Q 1172.31 1146.30 1171.43 1146.50
  C 1135.36 1154.95 1097.35 1153.55 1064.92 1136.47
  Z"
/>
<path fill="#f89b31" d="
  M 305.42 1083.22
  Q 316.48 1054.47 340.17 1034.53
  C 348.17 1027.80 357.44 1022.32 365.79 1016.06
  C 388.40 999.09 406.93 977.96 416.85 951.63
  Q 417.04 951.14 417.35 951.56
  Q 476.18 1030.25 565.62 1071.30
  A 0.33 0.33 0.0 0 1 565.72 1071.83
  C 527.44 1109.74 477.02 1132.31 423.01 1134.05
  Q 406.16 1134.59 389.00 1135.30
  C 359.58 1136.50 327.97 1143.57 308.30 1167.00
  Q 304.69 1171.30 301.96 1176.72
  Q 301.54 1177.56 301.31 1176.65
  C 293.67 1145.92 294.06 1112.75 305.42 1083.22
  Z"
/>
<path fill="#f89b31" d="
  M 804.73 1218.53
  C 780.70 1246.04 750.27 1270.94 742.17 1308.20
  Q 738.34 1325.81 743.08 1341.56
  Q 743.29 1342.24 742.68 1341.87
  C 716.63 1326.13 693.78 1303.13 680.79 1275.79
  C 669.38 1251.76 666.29 1225.45 671.67 1199.33
  C 678.59 1165.74 679.31 1132.19 665.24 1101.00
  Q 665.01 1100.49 665.56 1100.57
  Q 763.21 1114.48 854.99 1080.38
  Q 855.55 1080.18 855.55 1080.77
  C 855.49 1130.81 837.49 1181.01 804.73 1218.53
  Z"
/>
</svg>
