<?xml version="1.0" encoding="UTF-8"?>
<svg id="Capa_1" data-name="Capa 1" xmlns="http://www.w3.org/2000/svg" viewBox="0 0 1250 1250">
  <defs>
    <style>
      .cls-1 {
        fill: #fff;
      }

      .cls-2 {
        fill: #b7c1d0;
      }

      .cls-3 {
        fill: #ffcf31;
      }
    </style>
  </defs>
  <path class="cls-3" d="M711.02,330.25c-65.3-12.32-120.36-7.01-183.66-.85-2.14,.2-4.03-1.36-4.24-3.5-.06-.62,.03-1.24,.26-1.81l94.2-231.71c.7-1.69,2.63-2.51,4.33-1.81,.25,.1,.48,.23,.7,.39,2.21,1.71,3.89,3.85,5.02,6.44,31.78,74.68,62.45,148.79,92.02,222.33,1.59,3.99-.36,8.51-4.34,10.1-1.36,.54-2.84,.69-4.28,.42Z"/>
  <path class="cls-3" d="M938.37,387.78c-36.08-7.52-74.43-6.7-115.05,2.46l-58.57-41.79c-1.64-1.13-2.02-3.39-.85-5.05,.4-.57,.96-1.02,1.61-1.3l226.4-95.34c9.86-4.11,12.73-1.23,8.62,8.62-16.49,39.36-32.51,77.11-48.05,113.25-2.21,5.18-6.92,11.56-14.12,19.14Z"/>
  <path class="cls-3" d="M337.63,478.38l-94.39-226.02c-1.04-2.57,.2-5.5,2.77-6.54,1.21-.49,2.56-.49,3.76,0l228.3,95.62c2.52,1.03,3.7,3.94,2.63,6.49-.36,.85-.94,1.59-1.68,2.13-52.94,38.6-96.35,81.79-130.21,129.55-2.07,2.9-6.09,3.57-8.99,1.51-.97-.69-1.73-1.64-2.19-2.74Z"/>
  <path class="cls-3" d="M768.26,419.71c-22.08,29.09-41.13,53.26-71.83,52.22-61.85-2.08-113.15,22.65-153.9,74.2-20.28,25.68-20.85,59.23-42.74,85.1-16.49,19.52-37.05,39.23-46.72,62.64-12.51,30.33-15.29,67.1-8.34,110.31-47.07-48.65-72.25-103.58-75.53-164.8-3.16-58.31,12.83-112.52,47.95-162.62,52.44-74.8,132.36-109.39,239.76-103.77,35.13,1.83,72.25,17.41,111.35,46.72Z"/>
  <path class="cls-2" d="M938.37,387.78c75.88,30.64,121.21,83.81,135.99,159.5,2.97,15.29,7.64,26.16,14.03,32.6,16.62,16.81,36.01,28.11,58.19,33.93,14.22,3.73,16.02,10.68,5.4,20.85-4.04,3.85-4.96,8.4-2.75,13.65,49.66,119.22-21.99,252.46-158.17,251.71-9.54-.06-20.28-.32-32.22-.76-42.27,.06-102.63-1.07-181.1-3.41-6.32-.19-10.46,2.59-12.41,8.34-10.74-4.11-17.66-6.16-20.75-6.16-47.64,.76-95.12,1.14-142.44,1.14-60.84,0-101.12-18.57-134.86-64.06-8.78-11.88-16.3-22.18-22.55-30.89-6.95-43.21-4.17-79.98,8.34-110.31,9.67-23.41,30.23-43.12,46.72-62.64,21.89-25.87,22.46-59.42,42.74-85.1,40.75-51.55,92.05-76.29,153.9-74.2,30.7,1.04,49.75-23.12,71.83-52.22l55.06-29.47c40.62-9.16,78.97-9.98,115.05-2.46Zm-110.31,238.25c-1.2,0-1.96-.57-2.27-1.71-40.47-135.99-206.97-141.39-264.5-15.26-1.85,4.16-.03,9.02,4.08,10.87,.49,.22,.99,.39,1.51,.51,30.89,6.95,56.96,22.11,78.18,45.49,1.01,1.07,2.12,2.08,3.32,3.03,1.58,1.33,2.37,2.97,2.37,4.93-.06,3.29-1.39,3.95-3.98,1.99-31.59-24.32-64.32-29.73-98.18-16.21-80.55,32.13-75.53,153.34,3.13,182.24,17.25,6.38,39.27,9.26,66.05,8.62,120.55-2.78,242.2-3.51,364.95-2.18,48.9,.57,96.57-15.83,118.75-59.7,28.56-56.29,19.96-106.11-25.78-149.45-17.75-16.87-38.86-25.84-63.31-26.91-8.72-.38-17.91-1.36-27.58-2.94-17.44-2.97-17.94-7.68-1.52-14.12,9.54-3.79,19.46-6.89,29.76-9.29,6.16-1.36,10.49-6.92,10.33-13.27-1.9-69.47-50.99-128.13-120.36-138.08-54.65-7.77-101.56,13.14-140.73,62.74-2.24,2.88-1.73,7.03,1.14,9.29,37.84,29.63,60.43,69.02,67.76,118.18,.13,.82,.09,1.23-.09,1.23h-3.03Z"/>
  <path class="cls-1" d="M831.18,624.79c-7.33-49.15-29.92-88.55-67.76-118.18-2.87-2.26-3.38-6.41-1.14-9.29,39.17-49.6,86.08-70.51,140.73-62.74,69.37,9.95,118.46,68.61,120.36,138.08,.16,6.35-4.17,11.91-10.33,13.27-10.3,2.4-20.22,5.5-29.76,9.29-16.43,6.44-15.92,11.15,1.52,14.12,9.67,1.58,18.86,2.56,27.58,2.94,24.45,1.07,45.55,10.05,63.31,26.91,45.74,43.34,54.33,93.16,25.78,149.45-22.18,43.88-69.84,60.27-118.75,59.7-122.76-1.33-244.41-.6-364.95,2.18-26.79,.63-48.81-2.24-66.05-8.62-78.66-28.9-83.68-150.11-3.13-182.24,33.86-13.52,66.59-8.12,98.18,16.21,2.59,1.96,3.92,1.3,3.98-1.99,0-1.96-.79-3.6-2.37-4.93-1.2-.95-2.31-1.96-3.32-3.03-21.23-23.38-47.29-38.54-78.18-45.49-4.39-1-7.12-5.4-6.1-9.84,.12-.53,.29-1.04,.51-1.53,57.52-126.14,224.03-120.74,264.5,15.26,.32,1.14,1.07,1.71,2.27,1.71h3.03c.19,0,.22-.41,.09-1.23Z"/>
  <path class="cls-3" d="M85.92,627.92c-.77-.33-1.13-1.22-.8-1.99,.06-.14,.14-.27,.23-.38,3.48-4.04,7.64-7.04,12.51-9,72.97-28.75,145.5-58.6,217.59-89.56,3.9-1.67,8.41,.14,10.07,4.04,.55,1.29,.74,2.71,.54,4.11-8.15,61.03-7.99,119.41,.47,175.13,1.77,11.56-2.75,15.13-13.55,10.71l-227.07-93.06Z"/>
  <path class="cls-3" d="M469.93,912.7c-79.1,32.03-151.54,62.17-217.3,90.41-2.27,1.01-4.61,1.11-7.01,.28-2.27-.79-3.48-3.27-2.69-5.55,.04-.11,.08-.22,.13-.33l96.57-229.81c.97-2.26,3.59-3.31,5.85-2.34,.78,.33,1.44,.88,1.92,1.58,35.25,52.12,76.76,94.89,124.53,128.32,10.05,7.01,9.38,12.83-1.99,17.44Z"/>
  <path class="cls-3" d="M958.84,899.24l41.98,96.95c3.98,9.22,1.36,11.88-7.87,7.96l-222.61-95.15c-.74-.3-1.34-.84-1.71-1.52-.76-1.33-1.86-2.43-3.32-3.32,1.96-5.75,6.1-8.53,12.41-8.34,78.47,2.34,138.84,3.47,181.1,3.41Z"/>
  <path class="cls-3" d="M720.02,929.85l-92.3,227.07c-.73,1.76-2.51,2.87-4.45,2.75-2.27-.19-3.79-1.2-4.55-3.03-35-81.69-66.88-158.36-95.62-230-.87-2.02,.11-4.36,2.19-5.22,.68-.28,1.43-.38,2.17-.28,63.12,8.53,125.25,8.78,186.41,.76,3.16-.46,6.09,1.73,6.55,4.89,.15,1.04,.02,2.1-.39,3.07Z"/>
</svg>