<?xml version="1.0" encoding="UTF-8"?>
<svg id="Capa_1" data-name="Capa 1" xmlns="http://www.w3.org/2000/svg" viewBox="0 0 1250 1250">
  <defs>
    <style>
      .cls-1 {
        fill: #cce7ee;
      }

      .cls-2 {
        fill: #fff;
      }

      .cls-3 {
        fill: #454747;
      }
    </style>
  </defs>
  <rect class="cls-3" x="184.19" y="85.38" width="205.51" height="20.4" rx="9.99" ry="9.99"/>
  <rect class="cls-3" x="168.47" y="90.34" width="20.82" height="162.45" rx="10.13" ry="10.13" transform="translate(6.69 349.85) rotate(-89.8)"/>
  <rect class="cls-3" x="151.97" y="235.87" width="161.89" height="22.24" rx="10.34" ry="10.34"/>
  <rect class="cls-3" x="680.9" y="236.37" width="410.45" height="21.67" rx="10.69" ry="10.69"/>
  <path class="cls-3" d="M332.13,529.05c-3.54,3.07-7.67,3.89-12.39,2.48-5.25-1.62-8.73-6.58-8.43-12.04l1.42-27.41,6.73-34.06c.43-2.33-.96-4.59-3.19-5.17-76.15-20.73-139.84-5.57-191.06,45.46-77.9,77.69-67.28,202.39,17.49,270.24,8.88,5.85,16.67,13.05,23.37,21.6l-3.54,6.3c-2.7,4.85-8.82,6.6-13.68,3.9-.24-.13-.47-.28-.7-.43-38.15-25.4-64.68-56.09-79.6-92.06C-1.21,540.03,152.89,377.93,322.14,432.46c2.6,.85,4.48,.02,5.67-2.48,56.8-120.18,174.85-188.23,306.92-168.83,5.38,.8,8.38,3.89,8.99,9.28,.09,1.18,.02,2.34-.21,3.47-1.32,5.95-5.03,8.62-11.12,8-119.63-12.04-210.66,32.27-273.07,132.92-12.84,20.73-20.61,45.84-23.3,75.35-1.04,11.57-2.34,24.53-3.89,38.88Z"/>
  <rect class="cls-3" x="789.18" y="311.5" width="409.46" height="21.39" rx="9.28" ry="9.28"/>
  <path class="cls-1" d="M926.78,387.13c-105.47,.57-211.55,.66-318.25,.28-3.68-.05-6.96,.85-9.84,2.69-3.68,2.41-4.96,5.88-3.82,10.41,1.26,4.88,5.66,8.28,10.69,8.29l386.94,.28c23.98,17.47,41.1,35.53,51.34,54.17l-310.6,.21c-3.65,.04-6.96,2.15-8.57,5.45-1.04,2.08-1.2,4.15-.5,6.23,1.98,6.14,6.21,9.23,12.68,9.28l321.08,.35,19.05,38.95c-5.67,.8-7.86,4.34-6.59,10.62,17.61,85.31,.71,154.4-50.7,207.28-40.08,41.29-92.98,66.92-149.07,66.92-104.01-.09-210.23,0-318.68,.28-7.51,0-11.31,3.61-11.4,10.83-13.31-.66-26.6-2.22-39.87-4.67-15.67-2.93-28.85-4.48-39.52-4.67-77.14-1.32-154.29-1.94-231.43-1.84-20.16,0-39.66-5.76-58.49-17.28-2.17-1.37-3.89-1.72-5.17-1.06-6.7-8.55-14.49-15.74-23.37-21.6-7.08-17.33-13.2-34.02-18.34-50.07-5.24-16.29-7.2-32.22-5.88-47.8,5.67-66.36,22.02-109.48,81.58-151.83,36.35-25.82,73.91-34.75,112.67-26.77l-1.42,27.41c-.3,5.46,3.18,10.42,8.43,12.04,4.72,1.42,8.85,.59,12.39-2.48,9.96,.9,20.68-.9,32.15-5.38,11.57-4.58,20.06-12.13,25.49-22.66,12.82-25.07,22.87-54.67,40.01-76.34,39.99-50.52,88.85-82.97,146.59-97.37,82.43-20.54,160.78-6.16,235.04,43.13,6.44,4.32,12.46,4.96,20.04,3.47,34.89-6.66,66.66-2.24,95.32,13.24Zm-105.52,161.94c.02-5.2-4.18-9.43-9.39-9.45l-173.64-.61c-5.2-.02-9.43,4.18-9.45,9.39h0s0,.42,0,.42c-.02,5.2,4.18,9.43,9.39,9.45l173.64,.61c5.2,.02,9.43-4.18,9.45-9.39h0s0-.42,0-.42Zm216.13-.26c0-5.75-4.66-10.41-10.41-10.41h-141.07c-5.75,0-10.41,4.66-10.41,10.41h0v.42c0,5.75,4.66,10.41,10.41,10.41h141.07c5.75,0,10.41-4.66,10.41-10.41h0v-.42ZM142.48,683.22v12.61c0,2.11,1.71,3.82,3.82,3.82H421.5c71.81,0,130.02-2.22,130.02-4.96v-10.34c0-2.74-58.21-4.96-130.02-4.96H146.31c-2.11,0-3.82,1.71-3.82,3.82Zm516.96,82.43c0-5.59-4.53-10.13-10.13-10.13H259.4c-5.59,0-10.13,4.53-10.13,10.13v.28c0,5.59,4.53,10.13,10.13,10.13h389.92c5.59,0,10.13-4.53,10.13-10.13v-.28Z"/>
  <path class="cls-3" d="M926.78,387.13l68.55,.5c4.29,.05,8.09,2.77,9.49,6.8,2.69,7.93-1.42,12.82-12.32,14.66l-386.94-.28c-5.04,0-9.43-3.41-10.69-8.29-1.13-4.53,.14-8,3.82-10.41,2.88-1.84,6.16-2.74,9.84-2.69,106.7,.38,212.78,.28,318.25-.28Z"/>
  <path class="cls-2" d="M312.73,492.09c-38.76-7.98-76.32,.94-112.67,26.77-59.56,42.35-75.92,85.48-81.58,151.83-1.32,15.58,.64,31.51,5.88,47.8,5.15,16.05,11.26,32.74,18.34,50.07-84.77-67.84-95.39-192.55-17.49-270.24,51.22-51.04,114.91-66.19,191.06-45.46,2.23,.58,3.62,2.83,3.19,5.17l-6.73,34.06Z"/>
  <path class="cls-3" d="M1043.84,463.26l79.24,.14c6.94,0,10.74,3.45,11.4,10.34,.33,3.16-1.02,6.07-4.04,8.71-1.64,1.46-3.76,2.27-5.95,2.27l-66.57,.07-321.08-.35c-6.47-.05-10.69-3.14-12.68-9.28-.71-2.08-.54-4.15,.5-6.23,1.61-3.3,4.92-5.41,8.57-5.45l310.6-.21Z"/>
  <path class="cls-3" d="M1076.98,523.74c7.6-.85,12.02,.92,13.24,5.31,23.58,82.78,2.41,172.23-59.2,233.06-46.22,45.56-104.1,68.31-173.64,68.27-84.46-.05-168.85-.17-253.17-.35-15.63,0-31.84-.8-48.65-2.41-8.26-.76-13.27-3.4-15.01-7.93,.09-7.22,3.89-10.83,11.4-10.83,108.44-.28,214.67-.38,318.68-.28,56.09,0,108.99-25.64,149.07-66.92,51.41-52.88,68.31-121.97,50.7-207.28-1.27-6.28,.92-9.82,6.59-10.62Z"/>
  <rect class="cls-3" x="715.39" y="452.71" width="19.26" height="192.48" rx="9.42" ry="9.42" transform="translate(173.54 1272.05) rotate(-89.8)"/>
  <rect class="cls-3" x="875.51" y="538.4" width="161.89" height="21.25" rx="10.41" ry="10.41"/>
  <path class="cls-3" d="M142.48,683.22c0-2.11,1.71-3.82,3.82-3.82H421.5c71.81,0,130.02,2.22,130.02,4.96v10.34c0,2.74-58.21,4.96-130.02,4.96H146.31c-2.11,0-3.82-1.71-3.82-3.82h0v-12.61Z"/>
  <rect class="cls-3" x="249.27" y="755.52" width="410.17" height="20.54" rx="10.13" ry="10.13"/>
  <rect class="cls-3" x="54.6" y="830.16" width="410.6" height="21.25" rx="10.48" ry="10.48"/>
  <rect class="cls-3" x="184.12" y="905.73" width="409.75" height="21.25" rx="10.48" ry="10.48"/>
  <rect class="cls-3" x="86.89" y="981.36" width="194.75" height="20.96" rx="10.27" ry="10.27"/>
  <rect class="cls-3" x="335.67" y="981.64" width="161.46" height="20.96" rx="10.06" ry="10.06" transform="translate(-1.73 .73) rotate(-.1)"/>
  <rect class="cls-3" x="755.97" y="991.77" width="206.08" height="21.53" rx="10.55" ry="10.55" transform="translate(-1.75 1.5) rotate(-.1)"/>
  <rect class="cls-3" x="956.59" y="997.43" width="20.54" height="162.17" rx="9.63" ry="9.63" transform="translate(-115.03 2041.61) rotate(-89.8)"/>
  <rect class="cls-3" x="902.56" y="1072.92" width="21.1" height="162.03" rx="9.63" ry="9.63" transform="translate(-242.42 2065.03) rotate(-89.9)"/>
</svg>