<?xml version="1.0" encoding="UTF-8"?>
<svg id="Capa_1" data-name="Capa 1" xmlns="http://www.w3.org/2000/svg" viewBox="0 0 1250 1250">
  <defs>
    <style>
      .cls-1 {
        fill: #fff;
      }

      .cls-2 {
        fill: #78d5fb;
      }

      .cls-3 {
        fill: #b7c1d0;
      }

      .cls-4 {
        fill: #ffcf31;
      }
    </style>
  </defs>
  <path class="cls-3" d="M432.75,675.39l-54.67-25.63-56.6-70.06c-.8-4.49-.31-6.67,1.48-6.55l-10.05-48.86c1.48-50.83,12.85-87.49,34.11-109.98,21.57-22.86,45.17-46.09,56.51-76.24,7.56-20.04,17.58-38.44,30.05-55.22,1.6-2.15,2.09-4.55,1.48-7.19-.49-2.21-1.54-4.82-3.13-7.84,7.38-.06,12.91-1.91,16.59-5.53,49.97-48.86,110.35-71.23,181.15-67.11,7.4,.41,14.54-2.79,19.18-8.57,133.86-168.62,381.48-84.54,397.06,124.92,.18,2.89,1.32,5.32,3.41,7.28,9.59,9.22,22.77,14.84,33.1,23.69,114.78,97.81,77.81,280.81-63.98,327.46-22.31,7.31-65.76,10.97-130.36,10.97-129.93-.12-259.82-.22-389.69-.28-18.01,0-39.89-1.75-65.64-5.25Zm485.01-318.88c-26.12,8.48-27.2,5.99-3.23-7.47,22-12.35,45.2-20.01,69.6-22.96,3.5-.43,5.25-2.4,5.25-5.9-.83-163.18-196.55-225.22-296.21-99.75-4.3,5.37-3.4,13.22,2.01,17.55,.19,.15,.38,.29,.57,.43,37.24,26.24,60.88,62.9,70.89,109.98,1.6,7.62,1.51,15.36-.28,23.23-1.29,5.78-2.74,5.81-4.33,.09-42.22-154.88-247.35-166.31-304.13-16.41-1.23,3.18,.39,6.77,3.62,8.01,.32,.12,.65,.22,.99,.29,44.13,8.54,79.71,31.28,106.76,68.22,.49,.68,.52,1.41,.09,2.21l-1.48,2.4c-.37,.61-.8,.65-1.29,.09-46.28-51.07-120.4-47.94-165.67,.74-54.39,58.45-29.32,149.07,42.87,175.53,16.16,5.96,46.4,8.64,90.71,8.02,143.08-1.94,283.94,.46,423.52-1.38,68.59-1.01,121.14-40.29,134.97-108.78,20.19-100.67-75.78-186.22-175.25-154.14Z"/>
  <path class="cls-4" d="M354.11,235.83l53.84-131.19c.76-1.95,2.95-2.91,4.89-2.15,.95,.37,1.72,1.11,2.11,2.06l52.92,127.04c.77,1.94-.19,4.14-2.13,4.9-.38,.15-.78,.24-1.19,.26l-106.76,4.24c-2.09,.09-3.85-1.52-3.95-3.6-.02-.53,.06-1.06,.26-1.56Z"/>
  <path class="cls-1" d="M917.76,356.51c99.47-32.08,195.44,53.47,175.25,154.14-13.83,68.5-66.38,107.77-134.97,108.78-139.58,1.84-280.44-.55-423.52,1.38-44.31,.61-74.55-2.06-90.71-8.02-72.18-26.46-97.26-117.08-42.87-175.53,45.27-48.68,119.39-51.81,165.67-.74,.49,.55,.92,.52,1.29-.09l1.48-2.4c.43-.8,.4-1.54-.09-2.21-27.04-36.94-62.63-59.68-106.76-68.22-3.39-.7-5.58-3.98-4.89-7.33,.07-.33,.16-.66,.29-.97,56.79-149.9,261.91-138.47,304.13,16.41,1.6,5.72,3.04,5.69,4.33-.09,1.78-7.87,1.87-15.61,.28-23.23-10.02-47.08-33.65-83.74-70.89-109.98-5.64-4.01-6.99-11.81-3.01-17.41,.14-.19,.28-.38,.43-.57,99.66-125.47,295.38-63.43,296.21,99.75,0,3.5-1.75,5.47-5.25,5.9-24.4,2.95-47.6,10.6-69.6,22.96-23.97,13.46-22.89,15.95,3.23,7.47Z"/>
  <path class="cls-4" d="M243.3,326.64l-52-125.93c-1-2.4,.13-5.15,2.53-6.15,1.14-.47,2.41-.48,3.56-.03l126.21,51.53c2.4,.98,3.55,3.73,2.57,6.13-.23,.57-.57,1.08-1,1.52l-74.21,74.49c-1.85,1.82-4.83,1.8-6.65-.05-.43-.44-.77-.95-1-1.52Z"/>
  <path class="cls-4" d="M431.92,267.82c1.6,3.01,2.64,5.62,3.13,7.84,.61,2.64,.12,5.04-1.48,7.19-12.48,16.78-22.49,35.19-30.05,55.22-11.34,30.15-34.94,53.38-56.51,76.24-21.27,22.49-32.64,59.16-34.11,109.98-60.42-64.1-66.84-130.23-19.27-198.39,31.22-44.62,77.32-63.98,138.28-58.08Z"/>
  <path class="cls-4" d="M230.67,471.84l-128.7-54.3c-1.88-.77-2.78-2.93-2.01-4.81,.37-.91,1.1-1.64,2.01-2.01l128.88-53.84c1.89-.76,4.04,.15,4.8,2.04,.18,.44,.27,.9,.27,1.38l-.18,108.23c-.05,2.04-1.75,3.64-3.79,3.59-.44-.01-.88-.1-1.28-.27Z"/>
  <path class="cls-4" d="M322.95,573.16c-1.78-.12-2.27,2.06-1.48,6.55l-124.73,55.13c-6.76,2.95-8.7,1.04-5.81-5.72l53.93-127.96c.7-1.64,2.59-2.4,4.23-1.71,.38,.16,.73,.4,1.02,.69l72.83,73.01Z"/>
  <path class="cls-4" d="M432.75,675.39c-3.93,19.24-9.53,34.05-16.78,44.44-1.72,2.52-5.17,3.17-7.69,1.44-.89-.61-1.58-1.46-1.99-2.46l-28.21-69.05,54.67,25.63Z"/>
  <path class="cls-2" d="M649.58,775.79c2.03,41.49,5.44,76.52-4.98,116.44-6.73,25.81-38.54,58.91-66.01,39.55-26.92-18.99-18.07-58.72-2.95-82.69,18.75-29.56,41.06-55.04,66.93-76.43,1.88-1.48,4.6-1.16,6.09,.72,.55,.69,.87,1.53,.92,2.41Z"/>
  <path class="cls-2" d="M417.63,927.53c-40.47-45.17,31.34-123.07,66.19-153.59,2.4-2.04,6-1.79,8.03,.56,.68,.78,1.12,1.73,1.28,2.75,6.55,40.47,9.22,115.42-23.23,145.94-14.38,13.55-36.88,21.48-52.27,4.33Z"/>
  <path class="cls-2" d="M726.93,926.43c-31.71-47.02,33.46-121.32,67.02-149.62,2.73-2.29,6.79-1.97,9.07,.71,.78,.92,1.28,2.05,1.44,3.25,6.73,47.48,10.42,133.68-42.41,156.45-12.35,5.25-27.75,.28-35.12-10.79Z"/>
  <path class="cls-2" d="M874.52,912.6c-13.46-46.28,41.3-106.57,73.11-135.34,1.66-1.54,3.6-2.43,5.81-2.67,2.13-.22,4.05,1.29,4.33,3.41,7.56,47.48,11.89,122.06-28.86,153.77-21.94,16.96-47.2,5.35-54.39-19.18Z"/>
  <path class="cls-2" d="M357.43,1128.78c-12.08,19.36-46.37,37.43-63.89,11.71-33.65-49.32,32.82-118.74,69.51-151.28,1.92-1.75,4.89-1.62,6.64,.29,.65,.71,1.07,1.61,1.19,2.56,5.72,39.18,8.76,101.13-13.46,136.72Z"/>
  <path class="cls-2" d="M831.38,1112.19c-6.36,23.14-37.89,51.81-63.43,36.6-13.64-8.05-19.54-21.02-17.7-38.9,4.79-47.39,43.14-89.24,76.98-121.23,1.87-1.73,4.79-1.61,6.51,.25,.58,.63,.97,1.4,1.14,2.24,8.24,42.35,7.07,82.69-3.5,121.05Z"/>
  <path class="cls-2" d="M526.14,994.46c8.02,44.44,10.23,135.06-39.55,155.62-27.93,11.62-48.86-12.54-48.31-38.81,1.01-42.96,47.39-94.77,78.18-120.31,2.56-2.1,6.34-1.72,8.43,.84,.63,.77,1.06,1.68,1.25,2.66Z"/>
  <path class="cls-2" d="M675.12,1112.01c-7.28,23.97-36.41,53.29-62.87,35.77-56.14-37.06,31.44-131.74,58.72-156.54,2.48-2.27,6.33-2.1,8.6,.38,.84,.92,1.38,2.07,1.54,3.31,6.21,44.62,4.21,83.65-5.99,117.08Z"/>
</svg>