<?xml version="1.0" encoding="UTF-8"?>
<svg id="Capa_1" data-name="Capa 1" xmlns="http://www.w3.org/2000/svg" viewBox="0 0 1250 1250">
  <defs>
    <style>
      .cls-1 {
        fill: #fff;
      }

      .cls-2 {
        fill: #b7c1d0;
      }

      .cls-3 {
        fill: #ffcf31;
      }
    </style>
  </defs>
  <path class="cls-3" d="M380.87,274.58l60.09-150.69c.66-1.75,2.61-2.64,4.37-1.98,.88,.33,1.59,1.01,1.94,1.89l61.12,150.32c.68,1.75-.19,3.71-1.94,4.39-.37,.14-.77,.22-1.17,.23l-121.31,.47c-1.87-.03-3.37-1.57-3.34-3.44,0-.4,.08-.8,.23-1.17Z"/>
  <path class="cls-3" d="M255.89,379.69l-64.8-149.47c-.65-1.53,.06-3.3,1.59-3.96,.76-.32,1.61-.32,2.37,0l150.13,63.2c1.54,.62,2.29,2.38,1.67,3.92-.15,.36-.36,.7-.64,.98l-85.42,86.27c-1.18,1.18-3.09,1.17-4.26,0-.27-.27-.48-.59-.64-.94Z"/>
  <path class="cls-3" d="M543.81,288.62l144.76-60.94c2.45-1.02,5.26,.13,6.28,2.58,.48,1.16,.49,2.47,.03,3.63l-60.47,145.04c-1.04,2.44-3.86,3.57-6.3,2.53-.57-.24-1.08-.59-1.51-1.02l-84.29-84.01c-1.88-1.87-1.88-4.92,0-6.79,.43-.44,.95-.78,1.51-1.02Z"/>
  <path class="cls-3" d="M610.59,465.4c-14.32,17.58-28.95,33.62-43.89,48.13-8.95,8.76-15.54,20.16-30.23,19.5-50.11-2.45-97.83,6.4-143.16,26.56-20.72,9.23-39.84,28.35-62.16,40.03-94.65-82.5-58.02-245.16,63.29-280.95,23.86-7.03,50.01-8.32,78.45-3.86,77.86,12.31,123.76,62.51,137.7,150.6Z"/>
  <path class="cls-3" d="M240.73,542.44l-150.98-61.41c-1.68-.7-2.47-2.63-1.77-4.31,.35-.83,1.02-1.49,1.87-1.81l151.54-59.81c1.69-.68,3.61,.15,4.29,1.84,.15,.37,.23,.77,.24,1.18l-.66,121.31c-.03,1.82-1.52,3.28-3.34,3.25-.4,0-.8-.09-1.18-.24Z"/>
  <path class="cls-2" d="M260.7,699.16l45.58-71.77c11.05-7.97,19.34-17.24,24.86-27.78,22.32-11.68,41.44-30.8,62.16-40.03,45.33-20.16,93.05-29.01,143.16-26.56,14.69,.66,21.29-10.74,30.23-19.5,14.94-14.5,29.57-30.55,43.89-48.13,11.05-2.45,21.63-9.36,31.74-20.72,2.13-2.45,2.83-5.24,2.07-8.38l-2.07-9.23c-3.33-14.88,1.32-18.05,13.94-9.51,10.08,6.88,20.72,11.96,33.25,8.76,80.06-20.34,158.04-17.71,228.87,31.65,72.58,50.55,111.73,123.07,117.45,217.56,.24,3.73,2.01,7.17,4.9,9.51,15.07,12.06,32.78,22.23,46.34,35.51,125.26,122.34,90.6,331.05-78.17,393.69-23.92,8.92-56.67,13.47-98.23,13.66-177.19,.75-359.81,.5-547.86-.75-62.35-.38-123.95-26.94-160.77-76.29-54.56-72.96-60.59-150.03-18.08-231.22,13.56-25.81,39.65-47.94,61.41-67.25,12.24-10.86,17.36-28.6,15.35-53.21Zm434.28,45.68c-13.37-46.4-42.35-85.2-86.93-116.41-31.9-22.35-70.61-31.71-116.13-28.07-79.49,6.4-137.04,59.71-165.57,132.7-1.17,2.84,.23,6.09,3.12,7.27,.42,.17,.86,.29,1.31,.36,53.43,8.16,96.69,35.44,129.78,81.85,1.19,1.63,1.82,3.49,1.88,5.56,.13,4.52-1.38,5.15-4.52,1.88-50.11-52.18-131.48-60.18-186.67-10.64-75.06,67.34-53.78,196.28,43.61,228.3,19.21,6.34,39.02,9.36,59.43,9.04,176.5-2.95,354.22-3.05,533.17-.28,58.3,.85,111.42-9.7,148.24-54.72,109.72-134.4-20.34-324.84-185.73-265.31-1.51,.57-2.76,.22-3.77-1.04-.75-.82-.97-1.63-.66-2.45,.57-1.51,1.54-2.64,2.92-3.39,29.45-17.71,60.53-29.17,93.24-34.38,3.69-.6,6.4-3.75,6.4-7.44-.85-203.25-247.14-286.69-361.76-114.24-2.49,3.72-1.62,8.73,1.98,11.4,55.44,40.5,85.8,93.59,91.08,159.26,1.19,14.94-.28,15.19-4.43,.75Z"/>
  <path class="cls-1" d="M694.97,744.84c4.14,14.44,5.62,14.19,4.43-.75-5.27-65.68-35.63-118.77-91.08-159.26-3.59-2.66-4.47-7.68-1.98-11.4,114.62-172.45,360.91-89,361.76,114.24,0,3.69-2.72,6.84-6.4,7.44-32.71,5.21-63.79,16.67-93.24,34.38-1.38,.75-2.35,1.88-2.92,3.39-.31,.82-.09,1.63,.66,2.45,1,1.26,2.26,1.6,3.77,1.04,165.39-59.52,295.45,130.91,185.73,265.31-36.83,45.02-89.95,55.57-148.24,54.72-178.95-2.76-356.67-2.67-533.17,.28-20.41,.31-40.22-2.7-59.43-9.04-97.39-32.02-118.67-160.96-43.61-228.3,55.19-49.54,136.57-41.53,186.67,10.64,3.14,3.26,4.65,2.64,4.52-1.88-.06-2.07-.69-3.92-1.88-5.56-33.09-46.4-76.35-73.68-129.78-81.85-3.09-.46-5.23-3.3-4.78-6.34,.06-.44,.18-.88,.35-1.29,28.54-72.99,86.08-126.3,165.57-132.7,45.52-3.64,84.23,5.71,116.13,28.07,44.58,31.21,73.56,70.01,86.93,116.41Z"/>
  <path class="cls-3" d="M306.28,627.39l-45.58,71.77c-19.65,13.12-40.62,22.79-62.91,29.01-1.65,.51-3.37-.46-3.86-2.15-.2-.68-.16-1.42,.09-2.08l61.13-148.81c.9-2.22,3.43-3.28,5.65-2.38,.66,.27,1.24,.7,1.7,1.25l43.8,53.4Z"/>
</svg>