<?xml version="1.0" encoding="UTF-8"?>
<svg id="Capa_1" data-name="Capa 1" xmlns="http://www.w3.org/2000/svg" viewBox="0 0 1250 1250">
  <defs>
    <style>
      .cls-1 {
        fill: #fff;
      }

      .cls-2 {
        fill: #78d5fb;
      }

      .cls-3 {
        fill: #b7c1d0;
      }
    </style>
  </defs>
  <path class="cls-3" d="M967.84,297.76c1.61,19.96,33.39,34.05,46.73,46.92,106.32,102.35,69.33,277.9-68.2,329.74-23.02,8.7-48.37,12.99-76.05,12.86-154.94-.82-305.93-.73-452.99,.28-42.44,.25-74.92-4.29-97.43-13.62-123.16-51.08-144.53-214.25-39.25-296.44,20.24-15.8,21-45.02,33.11-66.78,49.69-89.1,127.35-130.94,232.97-125.52,4.19,.24,8.21-1.69,10.69-5.11,127.79-176.13,392.92-98.47,410.42,117.67Zm-290.58,74.54c-8.04-14.85-10.59-29.99-20.81-44.17-41.15-56.94-90.52-91.09-166-79.46-59.15,9.08-102.22,43.42-129.21,103.01-1.98,4.38-.04,9.53,4.34,11.52,.58,.26,1.19,.46,1.81,.59,43.2,8.58,77.06,29.32,101.59,62.24,8.77,11.79,7.54,12.9-3.69,3.31-49.85-42.47-121.74-37.17-163.45,11.16-64.13,74.44-12.39,187.85,87.31,187.29,133.43-.63,284.71-.44,453.84,.57,37.39,.19,66.09-3.37,86.08-10.69,85.51-31.31,114.93-134.88,64.79-209.42-30.58-45.4-77.19-64.67-139.8-57.79-12.2,1.32-23.46,6.34-35.09,7.09-4.73,.32-5.11-.85-1.14-3.5,24.91-16.4,50.95-26.89,78.13-31.5,10.22-1.77,14.76-7.79,13.62-18.07-7.82-71.95-40.93-120.63-99.32-146.05-76.14-33.2-161.65-9.93-208.76,59.21-3.58,5.23-2.27,12.37,2.93,15.99,48.93,33.74,74.5,79.61,76.71,137.63,.19,5.8-1.1,6.15-3.88,1.04Z"/>
  <path class="cls-1" d="M681.14,371.26c-2.21-58.01-27.78-103.89-76.71-137.63-5.2-3.62-6.51-10.76-2.93-15.99,47.11-69.14,132.61-92.41,208.76-59.21,58.39,25.41,91.5,74.09,99.32,146.05,1.14,10.28-3.41,16.3-13.62,18.07-27.18,4.6-53.22,15.1-78.13,31.5-3.97,2.65-3.59,3.82,1.14,3.5,11.63-.76,22.89-5.77,35.09-7.09,62.62-6.87,109.22,12.39,139.8,57.79,50.13,74.54,20.72,178.11-64.79,209.42-19.99,7.31-48.68,10.88-86.08,10.69-169.13-1.01-320.41-1.2-453.84-.57-99.7,.57-151.44-112.85-87.31-187.29,41.71-48.34,113.6-53.63,163.45-11.16,11.22,9.59,12.45,8.48,3.69-3.31-24.53-32.92-58.39-53.66-101.59-62.24-4.7-.98-7.72-5.59-6.74-10.3,.13-.62,.33-1.23,.59-1.81,26.99-59.59,70.06-93.93,129.21-103.01,75.48-11.63,124.86,22.51,166,79.46,10.22,14.19,12.77,29.32,20.81,44.17,2.77,5.11,4.07,4.76,3.88-1.04Z"/>
  <path class="cls-2" d="M393.96,765.04c5.77,46.25,7.85,101.02-11.26,140.47-8.23,16.93-39.92,44.65-60.82,27.9-58.74-47.11,27.81-140.18,64.04-171.49,1.98-1.78,5.05-1.58,6.84,.46,.66,.75,1.08,1.68,1.2,2.66Z"/>
  <path class="cls-2" d="M486.66,933.03c-53.25-50.7,24.5-135.45,64.6-169.98,2.27-2,5.74-1.79,7.74,.49,.74,.84,1.21,1.9,1.34,3.01,4.16,33.67,4,67.66-.47,101.97-4.82,36.8-20.72,66.31-61.39,68.86-4.6,.32-8.54-1.14-11.82-4.35Z"/>
  <path class="cls-2" d="M726.54,767.87c6.43,56,11.45,139.71-42.75,165.91-29.8,14.47-52.12-16.17-49.56-43.51,4.54-48.34,47.48-95.82,81.91-126.37,2.55-2.32,6.5-2.13,8.82,.43,.89,.98,1.45,2.23,1.59,3.55Z"/>
  <path class="cls-2" d="M808.26,852.91c16.84-31.97,40.42-61.23,70.75-87.78,3.25-2.87,8.21-2.56,11.08,.69,1,1.14,1.65,2.54,1.88,4.04,7.57,51.08,10.12,132.05-40.2,163.07-11.22,6.94-21.82,7.57-31.78,1.89-28.19-15.99-24.59-57.42-11.73-81.91Z"/>
  <path class="cls-2" d="M177.26,1144.43c-17.69-54.96,38.21-116.35,76.05-151.91,2.63-2.54,6.82-2.47,9.36,.16,.98,1.01,1.61,2.32,1.8,3.71,6.81,48.9,13.15,145.38-45.59,168.37-17.88,7-35.85-2.55-41.62-20.34Z"/>
  <path class="cls-2" d="M338.91,1128.83c-4.16-49.28,46.63-104.52,80.97-136.78,2.33-2.17,5.98-2.05,8.16,.28,.81,.86,1.33,1.95,1.49,3.12,7.09,49.38,12.11,131.48-31.12,162.03-28.09,19.86-56.94,2.74-59.5-28.66Z"/>
  <path class="cls-2" d="M669.22,1126.08c-2.36-49.19,47.67-102.25,81.35-134.6,2.2-2.16,5.74-2.12,7.89,.08,.74,.76,1.25,1.71,1.47,2.75,9.84,47.58,13.15,161.46-53.73,171.49-22.51,3.31-36.13-20.34-36.98-39.73Z"/>
  <path class="cls-2" d="M558.17,1161.37c-18.03,9.96-32.98,6.56-44.84-10.22-34.53-48.9,38.97-126.84,71.7-157.68,2.94-2.83,7.62-2.71,10.46,.28,1.13,1.19,1.84,2.72,2.03,4.35,4.92,47.96,9.08,136.49-39.35,163.26Z"/>
</svg>