<?xml version="1.0" encoding="UTF-8"?>
<svg id="Capa_1" data-name="Capa 1" xmlns="http://www.w3.org/2000/svg" viewBox="0 0 1250 1250">
  <defs>
    <style>
      .cls-1 {
        fill: #fff;
      }

      .cls-2 {
        fill: #b7c1d0;
      }

      .cls-3 {
        fill: #ffcf31;
      }
    </style>
  </defs>
  <path class="cls-2" d="M668.56,674.34c-.75-.69-1.48-1.35-2.17-1.98-1.26-1.2-2.95-1.88-4.71-1.88l-182.16-.94c-28.38,.44-56.61,.19-84.68-.75-36.23-1.26-63.36-5.87-81.38-13.85-56.58-25.24-89.48-68.13-98.71-128.66-8.19-53.69,10.93-116.7,57.36-149.01,9.54-6.66,15.32-13.44,17.33-20.35,34.6-117.55,113.97-173.75,238.11-168.6,3.71,.19,6.84-1.07,9.42-3.77,10.27-10.74,18.27-24.21,29.67-34.57,133.19-121.32,338.61-49.45,366.87,129.32,1.26,7.97,2.57,16.08,3.96,24.3,.63,3.7,2.48,6.62,5.56,8.76,8.23,5.78,16.36,11.52,24.4,17.24,66.59,47.47,88.44,143.64,59.43,217.2-21.54,54.63-59.5,91.52-113.88,110.67-21.48,7.54-60.44,11.43-116.89,11.68-39.56,.13-79.09,.22-118.59,.28-3.52,.06-6.5,1.7-8.95,4.9Zm126.87-329.67c18.46-14.25,43.83-23.7,76.11-28.35,3.19-.47,5.55-3.23,5.56-6.5-.19-164.64-206.84-225.21-296.7-89.2-2.51,3.73-1.59,8.8,2.07,11.49,31.02,22.73,53.56,52.97,67.63,90.71,2.57,6.91,.44,8.95-6.4,6.12-5.46-2.26-7.79-6.12-6.97-11.59,.44-2.83-.72-4.55-3.49-5.18-2.89-.69-5.21-2.2-6.97-4.52-78.37-103.99-229.07-73.85-276.17,42.2-1.08,2.71,.2,5.77,2.85,6.84,.39,.16,.79,.26,1.2,.32,41.76,6.22,75.95,26.37,102.57,60.47,.82,1.07,1,2.23,.57,3.48-.44,1.19-1.19,1.7-2.26,1.51-.86-.12-1.71-.52-2.45-1.13-34.79-28.32-72.18-35.79-112.18-22.42-92.68,30.99-97.49,166.06-5.27,202.7,15.64,6.22,33.75,9.23,54.35,9.04,154.1-1.26,297.2-1.19,429.32,.19,52.84,.57,101.16-10.55,135.45-53.69,41.54-52.18,37.58-130.92-11.77-177.64-40-37.74-87.97-47.44-143.92-29.1-12.31,4.08-13.34,2.17-3.11-5.75Z"/>
  <path class="cls-1" d="M795.43,344.68c-10.24,7.91-9.2,9.83,3.11,5.75,55.95-18.34,103.92-8.63,143.92,29.1,49.36,46.72,53.31,125.46,11.77,177.64-34.29,43.14-82.61,54.25-135.45,53.69-132.12-1.38-275.22-1.44-429.32-.19-20.6,.19-38.71-2.83-54.35-9.04-92.21-36.64-87.41-171.71,5.27-202.7,40-13.38,77.39-5.9,112.18,22.42,.74,.61,1.58,1.01,2.45,1.13,1.07,.19,1.82-.31,2.26-1.51,.44-1.26,.25-2.42-.57-3.48-26.62-34.1-60.82-54.25-102.57-60.47-2.83-.4-4.79-3.06-4.38-5.94,.06-.42,.17-.83,.33-1.22,47.1-116.04,197.8-146.18,276.17-42.2,1.76,2.32,4.08,3.83,6.97,4.52,2.76,.63,3.92,2.35,3.49,5.18-.82,5.46,1.51,9.32,6.97,11.59,6.84,2.83,8.98,.79,6.4-6.12-14.07-37.74-36.61-67.97-67.63-90.71-3.67-2.69-4.58-7.76-2.07-11.49,89.86-136.01,296.51-75.45,296.7,89.2,0,3.27-2.37,6.03-5.56,6.5-32.28,4.65-57.64,14.1-76.11,28.35Z"/>
  <path class="cls-3" d="M668.56,674.34l-32.87,123.01c-.73,2.71,.88,5.5,3.59,6.23,.43,.11,.86,.17,1.3,.17l194.22,.19c3.59,0,6.49,2.92,6.49,6.51,0,1.51-.53,2.97-1.49,4.13l-274.66,336.92c-10.55,12.87-13.37,11.37-8.48-4.52l67.06-219.75c1.09-3.69-.97-7.57-4.61-8.66-.64-.19-1.31-.29-1.99-.29l-206.09-.19c-6.66,0-8.98-3.2-6.97-9.61l75.45-238.96,182.16,.94c1.75,.01,3.44,.69,4.71,1.88,.69,.63,1.41,1.29,2.17,1.98Z"/>
</svg>